<?xml version="1.0" encoding="utf-8" ?>
<svg baseProfile="full" height="300mm" version="1.1" viewBox="0,0,200,300" width="200mm" xmlns="http://www.w3.org/2000/svg" xmlns:ev="http://www.w3.org/2001/xml-events" xmlns:xlink="http://www.w3.org/1999/xlink"><defs /><rect fill="#222222" height="300" width="200" x="0" y="0" /><text fill="#FFFFFF" style="font-size:12px; font-family:Arial; font-weight:bold;" x="10" y="20">Over 10km Runs</text><text fill="#FFFFFF" style="font-size:4px; font-family:Arial" x="10" y="280">Runner</text><text fill="#FFFFFF" style="font-size:9px; font-family:Arial" x="10" y="290">chenbuer</text><text fill="#FFFFFF" style="font-size:4px; font-family:Arial" x="65" y="280">SPECIAL TRACKS</text><rect fill="yellow" height="2.6" width="2.6" x="65" y="283" /><text fill="#FFFFFF" style="font-size:3px; font-family:Arial" x="70" y="285.5">Over 20.0 km</text><rect fill="red" height="2.6" width="2.6" x="65" y="287" /><text fill="#FFFFFF" style="font-size:3px; font-family:Arial" x="70" y="289.5">Over 40.0 km</text><text fill="#FFFFFF" style="font-size:4px; font-family:Arial" x="120" y="280">STATISTICS</text><text fill="#FFFFFF" style="font-size:3px; font-family:Arial" x="120" y="285">Number: 1</text><text fill="#FFFFFF" style="font-size:3px; font-family:Arial" x="120" y="290">Weekly: 1.0</text><text fill="#FFFFFF" style="font-size:3px; font-family:Arial" x="141" y="285">Total: 10.2 km</text><text fill="#FFFFFF" style="font-size:3px; font-family:Arial" x="141" y="290">Avg: 10.2 km</text><text fill="#FFFFFF" style="font-size:3px; font-family:Arial" x="167" y="285">Min: 10.2 km</text><text fill="#FFFFFF" style="font-size:3px; font-family:Arial" x="167" y="290">Max: 10.2 km</text><polyline fill="none" points="88.1675346067641,228.77251808630535 87.046253597131,227.51955608982826 85.92497258726507,224.38714032707503 85.51186905731447,223.13416971307015 83.97748451749794,221.8811966367066 83.50536619778723,220.83705052558798 82.02999644819647,217.56538163730875 80.8497006483376,215.05941113480367 79.61039005825296,212.97109485871624 78.78418299858458,211.1612152197049 77.78093156870455,209.07288617524318 76.95472450880334,207.61105177388526 76.7186653490644,206.70610498881433 77.19078366877511,206.07960261584958 78.72516820859164,205.17465365683893 82.73817392787896,203.2951401762548 84.98073594737798,201.97251625725767 86.69216485717334,201.41562115465058 88.28556418698281,200.7891135828104 89.99699309677817,199.88415711431298 93.30182133615017,198.21346487477422 94.48211713600904,197.65656648855656 95.13127982593141,197.16928000142798 98.49512285529636,196.05548091838136 99.67541865515523,195.3593555035186 102.62615815456957,194.1759405535995 104.27857227437198,193.2709746978362 105.22280891425908,192.85329771559918 107.58340051374398,191.46103913232218 109.35384421329945,190.55606942268787 112.1275393429678,189.4422587857698 114.01601262274198,188.04999275307637 114.7241901026573,186.37926950020483 114.48813094268553,184.2212454851251 114.42911615245976,181.5759157584398 114.0750274125021,179.83556126774056 114.0750274125021,177.19021334202262 113.95699783274904,174.40562471898738 113.95699783274904,171.48179357365007 113.66192388278432,168.76679550210247 113.30783514282666,167.09602171042934 113.18980556284077,165.35562768758973 113.07177598262206,161.2482789538917 113.13079077284783,159.50786896492355 112.65867245313711,157.9763042439008 112.3045837127138,155.3308656035224 112.65867245313711,153.66005659481743 112.59965766291134,152.26771240873495 112.71768724289723,150.31842543871608 112.54064287268557,147.60333722503856 112.36359850293957,144.2616743161343 112.0095097629819,140.85037535923766 111.77345060301013,138.62257843051339 111.36034707305953,135.0720109808608 111.41936186305247,133.74924550158903 111.41936186305247,132.07837991957786 111.41936186305247,129.92017205996672 110.82921396335587,127.76195689220913 110.7701991731301,124.62905090244021 110.65216959314421,122.54043835378252 110.35709564341232,120.59106046630768 110.41611043317243,118.9201603885158 110.53414001315832,117.66698245535372 111.77345060301013,114.88213378179353 111.65542102325708,113.97705534292618 111.89148018322885,111.95802957791602 111.77345060301013,111.0529469862231 111.71443581301719,109.6605097198626 111.36034707305953,106.17940324393567 111.12428791332059,104.0211076795822 110.71118438313715,102.48940961883636 111.5964062330313,101.44506792124594 112.89473161264323,100.95770787674701 116.31758943223394,99.28675632318482 118.32409229199402,98.45127890328877 120.62566910171881,97.40693058836041 124.28458608081564,95.9448400720139 127.1172960002441,94.83086409367388 128.5926657503005,93.50801509025041 128.76971012027934,92.25478718569502 128.76971012027934,90.44456475030165 126.9402516304981,87.45072405290557 124.81571919098496,83.83024674578337 123.34034944092855,81.1148752666777 121.39286137139425,78.190616118256 120.09453599178232,76.17147696949542 118.73719582194462,74.15233142260695 116.78970775217749,71.57617091888096 116.31758943223394,70.81028335518204 115.78645632229745,69.7658897395595 115.49138237256557,69.06962637772085 113.83896825253032,69.48738448601216 111.71443581301719,70.67103097197833 108.99975547380745,71.92430132534355 107.46537093399093,72.48130958003458 105.28182370425202,73.94345393200638 102.39009899483062,75.26634355011629 99.43935949495062,76.72848151158541 98.61315243504941,78.67799357493641 96.84270873572677,79.51349691901123 96.60664957552217,80.20974886894692 98.84921159525402,83.62137242767494 100.20655176509172,85.36198965529911 102.2720694146119,88.98245825973572 103.74743916443549,91.69779621466296 105.63591244374402,94.90048764931271 107.2883265640121,98.79939462791663 107.70143009372987,99.56524855294265 108.64566673361696,103.04639115778264 109.41285900352523,107.15411497384775 109.70793295325711,110.2174849914154 109.94399211346172,114.46440543129575 109.88497732323594,118.08470870694146 110.18005127320066,119.05940222897334 110.18005127320066,119.89485263283132 110.53414001315832,122.8189204223454 110.7701991731301,127.27461697196122 111.30133228329942,130.61636894207913 111.41936186305247,134.1669612126425 111.65542102325708,137.78715257480508 111.95049497298896,142.17312610143563 112.06852455297485,144.4009106203448 111.53739144303836,146.41983361518942 111.89148018322885,147.81219057523413 112.06852455297485,149.41339731926564 112.24556892295368,151.15383487020154 112.06852455297485,154.91316376189934 111.30133228329942,156.09665160207078 107.34734135353938,156.8624366807053 105.45886807423085,157.21052050340222 102.92123210453428,157.69783753558295 98.9672411752399,158.7420870641945 97.25581226567738,159.22940292570274 93.59689528611489,160.7609646358178 92.41659948625602,161.10904632956954 88.58063813694753,163.12791640457 84.92172115761787,164.8683165097027 82.97423308785073,165.91255429195007 80.613641488133,166.95679036341608 77.78093156870455,168.14025584346382 75.3613251792267,168.90602645353647 72.58763004955836,169.8110268979217 72.17452651937492,170.64641078322893 71.7024081996642,171.48179357365007 71.28930466994643,174.68408412876306 71.23028987972066,178.51288867701078 71.17127508996055,181.15823111415375 71.17127508996055,185.12622418737737 71.17127508996055,187.35385859647067 71.1122602999676,190.13839066179935 71.28930466994643,194.1759405535995 71.99748214962892,197.51734181592474 73.64989626966417,201.2763973030378 74.88920685905032,204.20009180303896 75.71541391895153,206.2188254186185 77.24979845900089,208.23755264212377 77.19078366877511,209.21210832428187 79.07925694831647,213.3191480464302 80.67265627835877,216.59083872346673 81.79393728799187,219.1664131907164 82.79718871810474,220.41939160227776 84.03649930772372,222.43807386333356 85.45285426755436,223.6910458455095 85.86595779727213,224.4567497333628 86.81019443739206,226.82346502819564 87.2823127573356,228.1460373958107 88.28556418698281,228.70290915103396 88.99374166713096,229.259780419874 88.75768250669353,228.98134484613547 87.9904902370181,229.32938929420197 89.34783040662296,231.0 91.88546637655236,229.95586882188218 93.0657621761784,228.98134484613547 94.60014671599492,228.5636912578484 96.48861999576911,227.58916515437886 99.38034470495768,225.8489362647524 101.56389193469658,224.5263591321418 103.57039479422383,223.4822173527209 104.27857227437198,222.78612188325496 104.04251311440021,221.95080631651217 102.33108420460485,218.47031300957315 100.79669966502115,215.54668394831242 98.73118201526813,216.03395638946677 96.13453125557862,216.869279708073 95.19029461569153,215.7555150403059 95.01325024594553,214.7809693600866 93.24280654615723,213.17992679408053 92.94773259619251,212.20537717692787 91.82645158632658,210.325884422753 90.94122973666526,210.53471722453833 89.2298008268699,211.30043691280298 88.10851981723681,211.78771259920904 86.22004653746262,212.2749879132025 84.33157325768843,213.87603275163565 81.9709816579707,214.08486439054832 81.85295207821764,216.3820079053403 83.09226266783662,218.887973209552 83.97748451749794,219.1664131907164 86.27906132722273,218.60953310650075 87.9904902370181,217.6349917886546 88.46260855719447,219.44485305069247 89.64290435682051,222.22924496041378 88.75768250669353,222.50768348266138 86.16103174723685,223.34299831959652 85.86595779727213,224.80479665129678 86.57413527742028,226.3362008325057 87.57738670706749,228.4940822997596 88.52162334695458,230.7215651862789 89.46585998684168,230.93039130809484 91.64940721634775,230.23430396977346 92.59364385623485,229.816651202098 93.12477696617134,228.9117359337397 95.13127982593141,228.1460373958107 95.95748688559979,227.728383260197 97.25581226567738,226.61463756131707 98.79019680502824,225.9881547508412 101.03275882499292,225.08323404879775 102.39009899483062,224.31753091298742 104.39660185435787,222.57729309413116 103.8064539541956,220.76744072395377 101.8589658846613,217.49577147868695 100.20655176509172,215.19863197673112 99.20330033521168,215.26824238640256 99.61640386492945,214.5721379488823 100.26556655508466,213.3191480464302 99.43935949495062,211.1612152197049 97.96398974535987,208.44638612796552 97.13778268545866,206.3580481908284 95.4263537756633,202.9470815162058 93.95098402607255,200.7195015923353 91.29531847662292,201.62445687508443 90.05600788653828,202.18135179532692 86.04300216748379,203.92164528538706 83.50536619778723,205.03543062601238 79.55137526849285,207.05416159675224 78.1350203086622,207.75027424219297 77.89896114869043,209.07288617524318 78.6661534185987,211.370047747856 79.84644921845756,213.1103161565843 83.09226266783662,212.34459864208475 83.91846972773783,211.85732338111848 86.69216485717334,210.74354995810427 87.75443107727915,210.04744058049982 88.34457897697575,210.325884422753 88.22654939698987,210.39549536426784 90.88221494643949,210.88277174229734 91.88546637655236,210.53471722453833 92.88871780619957,212.55343078280566 93.71492486610077,213.59759045980172 94.71817629598081,214.98980070260586 95.30832419591025,215.7555150403059 96.1935460458044,216.73005923099117 98.43610806507058,216.4516181855579 100.79669966502115,215.68590468383627 102.21305462461896,218.3310928819119 104.10152790416032,221.602757840883 103.92448353418149,222.85573146439856 101.74093630490825,224.17831206246046 100.14753697486594,225.01362471090397 98.9672411752399,222.57729309413116 97.25581226567738,219.09680320700863 95.89847209560685,216.24278732185485 94.42310234578326,216.3820079053403 92.18054032605141,217.7046019320842 90.11502267676406,218.53992306184955 88.87571208691224,219.6536828656681 90.29206704651006,222.92534103803337 90.46911141672172,223.6910458455095 87.9904902370181,224.87440601200797 86.57413527742028,225.9881547508412 87.16428317711689,227.24111975630512 87.93147544725798,228.5636912578484" stroke="#4DD2FF" stroke-linecap="round" stroke-linejoin="round" stroke-width="0.5"><title>2025-07-30 10.2km</title><desc>9223370282972532807</desc></polyline></svg>