<?xml version="1.0" encoding="utf-8" ?>
<svg baseProfile="full" height="300mm" version="1.1" viewBox="0,0,200,300" width="200mm" xmlns="http://www.w3.org/2000/svg" xmlns:ev="http://www.w3.org/2001/xml-events" xmlns:xlink="http://www.w3.org/1999/xlink"><defs /><rect fill="#222222" height="300" width="200" x="0" y="0" /><text fill="#FFFFFF" style="font-size:12px; font-family:Arial; font-weight:bold;" x="10" y="20">Over 10km Runs</text><text fill="#FFFFFF" style="font-size:4px; font-family:Arial" x="10" y="280">Runner</text><text fill="#FFFFFF" style="font-size:9px; font-family:Arial" x="10" y="290">chenbuer</text><text fill="#FFFFFF" style="font-size:4px; font-family:Arial" x="65" y="280">SPECIAL TRACKS</text><rect fill="yellow" height="2.6" width="2.6" x="65" y="283" /><text fill="#FFFFFF" style="font-size:3px; font-family:Arial" x="70" y="285.5">Over 20.0 km</text><rect fill="red" height="2.6" width="2.6" x="65" y="287" /><text fill="#FFFFFF" style="font-size:3px; font-family:Arial" x="70" y="289.5">Over 40.0 km</text><text fill="#FFFFFF" style="font-size:4px; font-family:Arial" x="120" y="280">STATISTICS</text><text fill="#FFFFFF" style="font-size:3px; font-family:Arial" x="120" y="285">Number: 3</text><text fill="#FFFFFF" style="font-size:3px; font-family:Arial" x="120" y="290">Weekly: 1.5</text><text fill="#FFFFFF" style="font-size:3px; font-family:Arial" x="141" y="285">Total: 31.1 km</text><text fill="#FFFFFF" style="font-size:3px; font-family:Arial" x="141" y="290">Avg: 10.4 km</text><text fill="#FFFFFF" style="font-size:3px; font-family:Arial" x="167" y="285">Min: 10.2 km</text><text fill="#FFFFFF" style="font-size:3px; font-family:Arial" x="167" y="290">Max: 10.7 km</text><polyline fill="none" points="31.063136480981484,105.85360025092086 30.66418875567615,105.64445990936656 30.287404792848974,104.65104079263983 29.932784592616372,103.78833137408947 29.112725379527546,103.2393328530452 28.80243270425126,102.29818960283592 28.181847353698686,100.99104006323614 27.583425765740685,99.78845618457126 27.228805565508083,98.9780158161011 26.630383977550082,97.74927841259341 26.60822021495551,97.4355572139466 25.854652289417572,95.91923229265376 25.234066938865,94.50747287165723 24.990265551256016,93.06956120094401 24.945938026183285,91.94536969801993 24.945938026183285,90.45515422073368 24.945938026183285,88.86035194415308 24.901610501110554,88.12830799759831 24.901610501110554,87.18710534887214 24.945938026183285,85.5399918101175 25.078920601285063,84.88637218585063 25.56652337673586,84.44190982205328 26.120617439621128,84.20660588370811 27.162314277957194,83.86672200876637 27.649917053291574,83.68370741476247 29.245707954629324,82.97779267006263 30.708516280865297,82.21958562576037 31.395592918852344,81.85355377937958 31.949686981737614,81.59210211796744 32.415125994593836,81.40908578508242 33.54547788295895,80.88618120581668 34.6536660088459,80.52014732078533 35.42939769697841,80.23254887558869 37.047352360677905,79.8665139911609 38.48799692443572,79.55276935901202 39.8178226754535,79.26516975167033 40.128115350729786,79.1605879906565 40.859519513789564,78.87298791210924 40.92601080134045,78.4285143839661 40.99250208889134,77.90560329433356 40.793028226238675,77.14738018540083 40.70437317620963,75.63092676292581 40.7708644636441,75.00342598510906 40.74870070128236,74.89884236213402 40.7708644636441,75.21259309380548 40.50489931355696,73.90529566578334 40.43840802588966,72.20579833595548 40.30542545078788,70.71545997842622 40.238934163353406,69.17281927399745 40.10595158813521,67.49943506519776 40.150279113207944,66.76732579513919 40.10595158813521,65.53842305792205 40.43840802588966,64.9370428234688 41.94554387719836,64.49254341816413 43.164550815476105,64.15263155121647 43.85162745369598,64.04804318743118 45.42525459243916,63.6296892749524 46.66642529342789,63.289776182733476 46.910226681036875,63.21133463139995 47.796777181793004,63.02830424487183 48.92712907015812,62.66224305187643 50.05748095852323,62.37462315040466 51.58678057231009,62.03470827573619 53.27122652367689,61.7993823105935 54.84485366230365,61.7732349667931 56.529299613670446,61.7993823105935 58.191581802559085,61.825529651439865 59.78737270378042,61.7993823105935 60.91772459226195,61.6686455632298 61.1171984547982,61.45946661900962 60.7625782545656,60.70119141356554 60.09766537905671,59.524552718241466 59.69871765375137,58.74012370764103 58.96731349057518,57.32814500990207 58.65702081529889,56.805187822756125 58.191581802559085,55.890009995695436 57.482341401977465,54.58260702925327 56.99473862641025,53.6935689325619 56.39631703856867,52.621489188299165 56.13035188836511,51.91548283160955 57.59316021448467,51.314068366453284 59.033804778242484,50.79109803783649 60.56310439191293,50.29427516715077 61.91509390552528,49.77130261006823 63.1562646063976,49.431369835103396 64.26445273228455,49.16988275659969 64.88503808283713,48.9868416316458 65.28398580814246,48.72535406737006 65.74942482099868,48.25467573176138 66.74679413426202,47.182571622688556 67.74416344752535,46.476549220620655 68.60855018580332,45.06449816763052 69.67241078650113,44.12312617013231 70.58112504985183,43.26019858593645 71.29036545031704,42.449566808660165 72.13258842600044,41.58663318953768 72.75317377655301,41.037491993556614 73.46241417713463,40.17455328232609 74.17165457759984,39.468510203951155 75.03604131587781,38.553266075934516 75.83393676637206,37.74261835330981 76.94212489237543,36.644317058046 77.82867539313156,35.75521231722087 78.78171718132216,34.68305220644106 79.09200985659845,34.5 79.49095758178737,34.81380369667022 80.22236174496356,35.62446134141646 80.9759296705015,36.1997651005513 82.19493660901207,36.9842679976864 83.4361073100008,37.638018447192735 84.49996791081503,38.10871766490163 84.9432431611931,38.26561719835445 84.78809682349674,39.31161145916849 83.99020137288608,40.854444648197386 83.28096097230446,42.16192261473043 82.99283205962274,42.63261293385585 82.3057554216357,43.73088674484461 81.75166135875043,44.56766340814647 80.99809343297966,45.61363012272341 80.68780075781979,46.24120795697672 80.39967184502166,46.73803924200183 80.0228878823109,47.20872056050575 79.4244662943529,47.91474080251646 78.89253599394578,48.64690774241171 77.89516668056604,49.77130261006823 77.56271024281159,50.11123490211321 76.60966845462099,51.261771384990425 75.9447555791121,51.88933440801338 75.52364409121219,52.33385722024832 75.08036884095054,52.77837920696766 74.81440369051415,53.092158935643965 74.21598210267257,53.90275466424646 73.32943160203286,54.68719952942047 72.42071733879857,55.81156601908151 72.17691595107317,56.07304584101075 71.15738287521526,57.275849342608126 70.38165118719917,58.16487413262075 69.49510068644304,59.34151951239619 68.60855018580332,60.596601541605196 68.40907632315066,60.96266589371953 67.74416344752535,62.42691770363308 67.07925057201646,63.76042495112051 66.50299274653662,65.2769535764528 66.12620878382586,66.16594864823855 65.72726105840411,66.92420654147281 65.21749452047516,68.15310216402577 65.0180206579389,68.75447431851353 64.46392659493722,69.95721409490216 63.86550500697922,71.36911829514429 63.37790223164484,72.51955259726674 62.89029945619404,73.95758770001703 62.24755034316331,75.21259309380548 62.00374895555433,76.07540548541874 61.560473705176264,76.78134058367868 61.05070716724731,77.85331212251913 60.45228557928931,79.23902431571332 59.87602775380947,80.57243791005749 59.74304517870769,80.91232646186836 59.47708002850413,81.48752137341944 59.033804778242484,82.55947183906392 58.08076298981905,82.37645624569268 56.68444595125038,81.74897314912232 55.15514633769635,81.14763363816019 54.26859583694022,80.75545488248463 52.82795127329882,80.86003594682552 52.60631364805158,81.06919793847192 52.584149885573424,82.32416605045728 52.53982236050069,83.50069268079824 52.60631364805158,84.75564804683381 52.51765859790612,86.27204367081868 52.51765859790612,87.52698450995376 52.49549483554438,88.93878509137721 52.53982236050069,89.54010503318568 52.53982236050069,90.11527921643574 52.584149885573424,90.95189374376787 52.60631364805158,91.2656234378228 52.60631364805158,92.15452200516302 52.49549483554438,93.01727334107272 52.45116731047165,93.33100032879156 52.05221958516631,94.89962910137547 51.631108097266406,96.23295547795715 51.1656690845266,97.1741225677979 50.56724749645218,98.24600280307641 49.96882590849418,99.05644564908289 49.79151580843609,99.29173499382159 48.993620357709005,100.72960929898545 48.66116391995456,101.2263275069563 48.173561144503765,101.98447436402785 48.018414807040244,102.48118996893754 47.22051935631316,103.89290237816749 46.40046014310792,105.25232127663912 45.62472845509183,106.45487771533953 45.00414310453925,107.31757752721023 44.40572151658125,108.15413195249857 44.09542884142138,108.5462658332981 43.03156824060716,109.82723203592468 42.056362689705566,111.05590746551752 41.679578726994805,111.52646234347776 40.682209413615055,112.72898727562279 39.50753000017721,113.80079788650619 38.19986801163759,114.71575436885178 36.80355097306892,115.44771703780862 36.24945691018365,115.42157555244921 35.584544034674764,114.71575436885178 34.6536660088459,113.56552279744938 34.12173570843879,112.85969614352507 33.744951745611615,112.15386740928807 33.412495307973586,111.81402320267807 32.68109114479739,110.45464155352965 32.14916084439028,109.25210520067776 32.0161782692885,108.67697698429401 31.72804935660679,108.10184738654061 31.107464006054215,106.97772645723308 30.486878655618057,105.67060246206529 30.265241030370817,105.12160825636238 29.666819442412816,103.86675963146263 29.910620830138214,103.76218861587404 30.2209135054145,104.15432968882669 30.24307726789266,104.49418476593564 30.8193350933725,105.69674501194095 31.040972718503326,105.90588530775858" stroke="#4DD2FF" stroke-linecap="round" stroke-linejoin="round" stroke-width="0.5"><title>2025-08-06 10.2km</title><desc>9223370282366840407</desc></polyline><polyline fill="none" points="174.25,61.7377481716685 171.66250000009313,56.96320524252951 169.41250000009313,54.70855345984455 166.60000000009313,50.46449171495624 164.01250000018626,49.933982956106775 156.36249999981374,52.71915135951713 152.08749999990687,54.17804655106738 145.4499999997206,58.42209534707945 141.28750000009313,59.880983702722006 135.21250000037253,60.278862041654065 128.12499999953434,63.32925831899047 122.3874999997206,65.31864307704382 114.85000000009313,66.91014854202513 110.35000000009313,67.44064990140032 109.89999999990687,69.03215259173885 111.1374999997206,73.67402355244849 110.79999999981374,78.1832526770886 105.73749999981374,83.48820673034061 104.5,85.87542851106264 105.73749999981374,88.39526864420623 109.78749999962747,91.44559445825871 110.35000000009313,94.76115732418839 114.28749999962747,99.53555198572576 119.91250000009313,99.80079558456782 124.29999999981374,97.1483569961274 128.79999999981374,96.48524644551799 133.18750000046566,96.352624292369 138.3625000002794,94.23066787282005 144.10000000009313,91.44559445825871 149.16250000009313,90.51723523729015 152.64999999990687,90.25198961503338 159.7375000002794,89.323629483697 165.36249999981374,86.53854484134354 167.50000000046566,85.21231181942858 170.875,81.89672294212505 174.92499999981374,80.57048486184794 180.1000000005588,81.76409919920843 182.91250000009313,81.49885166983586 185.0500000002794,79.1116213054629 182.91250000009313,74.60239562008064 179.875,69.96052819991019 175.2624999997206,63.19663255289197 172.56250000046566,58.554721633321606 169.07500000065193,53.2496589042712 165.47500000009313,49.801355730276555 157.9375,52.321270549320616 154.22500000009313,53.2496589042712 148.82500000018626,56.03481972019654 143.7624999997206,59.08522663463373 138.58750000037253,59.61573140427936 134.20000000018626,60.80936629138887 130.71250000037253,62.13562590361107 126.09999999962747,64.12501261255238 122.6125000002794,65.05339196394198 116.4250000002794,66.3796469514491 110.35000000009313,67.17539925070014 110.01250000018626,68.76690228807274 111.02500000037253,73.01090021303389 111.1374999997206,76.45913763123099 109.4499999997206,80.43786097504199 105.51250000018626,83.62083028524648 104.72499999962747,86.00805180589668 105.85000000009313,88.39526864420623 110.35000000009313,93.03706576081458 110.5749999997206,95.82213553413749 114.85000000009313,99.80079558456782 117.5500000002794,100.3312826086767 124.1875,97.28097906254698 130.59999999962747,96.61786858458072 136.22500000009313,95.42426881392021 143.08750000037253,92.10870775370859 145.78749999962747,91.31297175551299 150.51250000018626,90.38461243337952 152.1999999997206,90.25198961503338 154.00000000046566,90.25198961503338 159.39999999990687,89.721498198458 164.125,87.73215332569089 167.50000000046566,85.47755853948183 170.4250000002794,82.82508873799816 171.66250000009313,81.6314754417399 175.48749999981374,80.57048486184794 179.7624999997206,81.49885166983586 184.03750000009313,80.70310873549897 184.60000000009313,76.85701055114623 182.35000000009313,73.14352490997408 177.96250000037253,67.17539925070014 173.46250000037253,59.880983702722006 170.53750000009313,55.23906013718806 167.38750000018626,50.46449171495624 164.8000000002794,49.66872848989442 160.07500000018626,51.260254419525154 156.02499999990687,52.45389750029426 151.07500000018626,54.443300034385175 145.78749999962747,58.15684273093939 141.625,60.013609830173664 137.01249999925494,59.880983702722006 133.75,60.9419923175592 129.58750000037253,62.400877652689815 123.84999999962747,64.92076638538856 120.25,65.45126861182507 112.37499999953434,66.3796469514491 110.125,67.17539925070014 110.79999999981374,70.6236532011535 111.02500000037253,74.20452196372207 110.91250000009313,77.2548833405599 108.54999999934807,81.23360408307053 105.28749999962747,83.35558316053357 104.95000000018626,87.33428396086674 106.18749999953434,88.79313766257837 109.4499999997206,90.38461243337952 110.4624999994412,95.02640196366701 113.9499999997206,99.40293016459327 116.76250000018626,100.59652603417635 119.125,100.46390432852786 122.3874999997206,98.2093331249198 125.98749999981374,96.75049070897512 129.58750000037253,96.48524644551799 137.35000000009313,95.02640196366701 143.7624999997206,91.97608512348961 149.38750000018626,90.38461243337952 158.0500000002794,89.85412107419688 160.75000000046566,89.19100655021612 162.43750000046566,88.26264560967684 164.91250000009313,86.80379127233755 166.375,85.87542851106264 170.31250000046566,83.09033597807866 172.22500000009313,81.23360408307053 174.81250000046566,80.57048486184794 176.5,80.57048486184794 178.8625000002794,81.36622788314708 182.91250000009313,81.49885166983586 185.1625000005588,77.78538019105326 182.8000000002794,73.80664817674551 181.00000000046566,70.88890310015995 178.52499999990687,67.57327520498075 177.625,65.45126861182507 178.63750000018626,63.99238693306688 175.6000000005588,63.06400677235797 171.09999999962747,56.30007279920392 168.06250000046566,51.65813557605725 167.0500000002794,49.933982956106775 164.6875,49.53610123542603 157.71249999990687,51.790762599906884 152.08749999990687,53.78016621770803 149.38750000018626,55.371686770697124 146.01250000018626,57.89159005659167 142.75,59.21785284858197 140.83750000037253,59.4831052335212 138.1374999997206,59.21785284858197 134.42499999981374,60.41148812568281 130.14999999990687,62.00300000712741 123.1750000002794,64.6555151855573 118.22499999962747,65.98177060706075 115.8625000002794,66.3796469514491 110.79999999981374,66.77752316591796 110.01250000018626,68.50165192596614 111.1374999997206,73.01090021303389 110.23749999981374,79.1116213054629 107.875,81.76409919920843 104.83749999990687,84.01870086370036 105.85000000009313,88.26264560967684 109.22499999962747,90.1193667827174 110.5749999997206,93.30231077596545 111.47499999962747,96.75049070897512 114.85000000009313,99.66817379265558 117.43749999953434,100.3312826086767 121.37499999953434,99.00506461481564 126.43750000046566,96.2200021246681 130.37499999953434,96.48524644551799 135.10000000009313,95.68951330822892 139.03750000009313,93.83280063187703 145.0,91.31297175551299 148.59999999962747,90.38461243337952 153.88750000018626,90.1193667827174 158.5,89.721498198458 163.33749999990687,87.73215332569089 167.16250000009313,85.61018187762238 170.7624999997206,82.42721776932012 173.3500000005588,80.43786097504199 176.83749999990687,80.57048486184794 181.33749999990687,81.76409919920843 184.4875000002794,80.43786097504199 185.38750000065193,78.1832526770886 183.13750000018626,74.33714653016068 179.9875000002794,69.43002793891355 175.6000000005588,63.19663255289197 171.4375,56.16744626685977 168.06250000046566,50.99500024248846 165.58749999990687,49.403473965940066 162.09999999962747,50.06661016761791 159.0625,51.39288148609921 156.02499999990687,52.45389750029426 151.29999999981374,54.17804655106738 148.82500000018626,56.03481972019654 144.88750000018626,58.554721633321606 138.92499999981374,59.35047904809471 135.4375,59.880983702722006 132.96249999990687,60.676740250433795 129.1374999997206,62.26825178519357 125.76250000018626,63.59450980788097 121.93750000046566,65.05339196394198 119.01250000018626,65.58389413217083 115.75,66.51227237097919 114.28749999962747,66.64489777572453 111.25,66.64489777572453 109.78749999962747,67.83852576930076 110.6875,69.56265302596148 111.36249999981374,75.79601580963936 108.8874999997206,80.43786097504199 106.41249999962747,82.16197038453538 104.95000000018626,86.53854484134354 107.31249999953434,88.92576063936576 110.35000000009313,92.24133036960848 111.36249999981374,97.01573491469026 113.61249999981374,98.73982084263116 117.43749999953434,100.3312826086767 121.8249999997206,98.60719893500209 124.1875,97.01573491469026 130.71250000037253,96.352624292369 135.32500000018626,95.42426881392021 139.375,93.70017818978522 142.6374999997206,92.50657555798534 147.02499999990687,90.91510356136132 151.8625000002794,89.9867439357331 154.33749999990687,89.85412107419688 158.83749999990687,89.58887530816719 163.11249999981374,88.13002256012987 166.14999999990687,86.40592160425149 169.75,83.22295957640745 171.21250000037253,81.89672294212505 173.91250000009313,80.43786097504199 180.32500000018626,81.23360408307053 182.35000000009313,81.49885166983586 184.26250000018626,79.77474132052157 185.27499999990687,78.31587680999655 184.60000000009313,76.72438625874929 180.4375,70.49102822970599 178.07500000065193,66.64489777572453 174.70000000018626,61.87037409667391 171.32500000065193,56.43269931676332 168.51250000018626,56.69795230857562 163.67499999981374,53.78016621770803 159.1750000002794,53.2496589042712 154.33749999990687,53.382285754196346 147.6999999997206,57.22845811909065 141.96249999990687,61.20724432670977 138.47500000009313,63.99238693306688 135.99999999953434,67.97115102957468 134.98749999981374,69.69527809869032 130.14999999990687,73.93927278683987 127.0,75.39814254292287 124.07500000018626,75.53076697979122 121.37499999953434,75.53076697979122 116.76250000018626,75.66339140175842 110.35000000009313,79.77474132052157 106.6374999997206,83.35558316053357 105.28749999962747,85.87542851106264 106.0749999997206,87.86477641842794 110.125,90.64985802641604 111.58749999990687,95.55689106835052 112.93749999953434,98.34195507573895 117.10000000009313,99.66817379265558 122.6125000002794,97.81146718503442 124.41250000009313,96.352624292369 130.14999999990687,96.08737994218245 132.85000000009313,95.55689106835052 137.6875,94.23066787282005 139.375,93.16968827554956 145.0,90.7824808008736 146.79999999981374,90.38461243337952 149.72500000009313,89.9867439357331 151.63750000018626,89.721498198458 152.76250000018626,89.721498198458 154.5625,89.85412107419688 156.8125,89.58887530816719 159.28750000009313,88.92576063936576 162.43750000046566,87.73215332569089 164.8000000002794,86.93641446600668 167.61249999981374,84.8144416307332 169.1875,83.22295957640745 171.66250000009313,80.96835643809754 177.40000000037253,80.0399892256828 179.3125,80.57048486184794 182.35000000009313,81.49885166983586 185.0500000002794,78.84637319808826 182.91250000009313,74.33714653016068 180.77499999990687,70.6236532011535 177.7375000002794,66.3796469514491 179.08750000037253,64.39026392810047 182.12500000046566,62.53350350575056 182.8000000002794,62.66612934391014" stroke="#4DD2FF" stroke-linecap="round" stroke-linejoin="round" stroke-width="0.5"><title>2025-08-01 10.7km</title><desc>9223370282800153107</desc></polyline><polyline fill="none" points="49.08376730338205,264.3862590431527 48.5231267985655,263.7597780449141 47.96248629363254,262.1935701635375 47.755934528657235,261.5670848565351 46.98874225874897,260.9405983183533 46.75268309889361,260.418525262794 46.014998224098235,258.7826908186544 45.4248503241688,257.52970556740183 44.80519502912648,256.4855474293581 44.39209149929229,255.58060760985245 43.89046578435227,254.5364430876216 43.47736225440167,253.80552588694263 43.3593326745322,253.35305249440717 43.595391834387556,253.0398013079248 44.36258410429582,252.58732682841946 46.36908696393948,251.6475700881274 47.49036797368899,250.98625812862883 48.34608242858667,250.7078105773253 49.142782093491405,250.3945567914052 49.998496548389085,249.9420785571565 51.650910668075085,249.1067324373871 52.24105856800452,248.82828324427828 52.56563991296571,248.584640000714 54.24756142764818,248.02774045919068 54.83770932757761,247.6796777517593 56.31307907728478,247.08797027679975 57.13928613718599,246.6354873489181 57.61140445712954,246.4266488577996 58.79170025687199,245.7305195661611 59.67692210664973,245.27803471134393 61.0637696714839,244.7211293928849 62.00800631137099,244.02499637653818 62.36209505132865,243.1896347501024 62.244065471342765,242.11062274256255 62.21455807622988,240.7879578792199 62.03751370625105,239.91778063387028 62.03751370625105,238.5951066710113 61.97849891637452,237.2028123594937 61.97849891637452,235.74089678682503 61.83096194139216,234.38339775105123 61.65391757141333,233.54801085521467 61.59490278142039,232.67781384379487 61.53588799131103,230.62413947694586 61.565395386423916,229.75393448246177 61.32933622656856,228.9881521219504 61.1522918563569,227.6654328017612 61.32933622656856,226.83002829740872 61.29982883145567,226.13385620436748 61.358843621448614,225.15921271935804 61.27032143634278,223.80166861251928 61.18179925146978,222.13083715806715 61.00475488149095,220.42518767961883 60.88672530150507,219.3112892152567 60.680173536529765,217.5360054904304 60.709680931526236,216.87462275079452 60.709680931526236,216.03918995978893 60.709680931526236,214.96008602998336 60.414606981677935,213.88097844610456 60.38509958656505,212.3145254512201 60.326084796572104,211.27021917689126 60.17854782170616,210.29553023315384 60.20805521658622,209.4600801942579 60.26707000657916,208.83349122767686 60.88672530150507,207.44106689089676 60.82771051162854,206.9885276714631 60.945740091614425,205.979014788958 60.88672530150507,205.52647349311155 60.857217906508595,204.8302548599313 60.680173536529765,203.08970162196783 60.56214395666029,202.0105538397911 60.355592191568576,201.24470480941818 60.79820311651565,200.72253396062297 61.44736580632161,200.4788539383735 63.15879471611697,199.6433781615924 64.16204614599701,199.22563945164438 65.3128345508594,198.7034652941802 67.14229304040782,197.97242003600695 68.55864800012205,197.41543204683694 69.29633287515026,196.7540075451252 69.38485506013967,196.1273935928475 69.38485506013967,195.22228237515083 68.47012581524905,193.72536202645279 67.40785959549248,191.91512337289168 66.67017472046427,190.55743763333885 65.69643068569712,189.095308059128 65.04726799589116,188.0857384847477 64.36859791097231,187.07616571130347 63.394853876088746,185.78808545944048 63.15879471611697,185.40514167759102 62.89322816114873,184.88294486977975 62.745691186282784,184.53481318886043 61.91948412626516,184.74369224300608 60.857217906508595,185.33551548598916 59.49987773690373,185.96215066267177 58.73268546699546,186.2406547900173 57.64091185212601,186.9717269660032 56.19504949741531,187.63317177505814 54.71967974747531,188.3642407557927 54.30657621752471,189.3389967874682 53.42135436786339,189.75674845950562 53.303324787761085,190.10487443447346 54.42460579762701,191.81068621383747 55.10327588254586,192.68099482764956 56.13603470730595,194.49122912986786 56.873719582217745,195.84889810733148 57.81795622187201,197.45024382465635 58.64416328200605,199.3996973139583 58.850715046864934,199.78262427647132 59.32283336680848,201.52319557889132 59.706429501762614,203.57705748692388 59.85396647662856,205.1087424957077 59.97199605673086,207.23220271564787 59.94248866161797,209.04235435347073 60.09002563660033,209.52970111448667 60.09002563660033,209.94742631641566 60.26707000657916,211.4094602111727 60.38509958656505,213.6373084859806 60.65066614164971,215.30818447103957 60.709680931526236,217.08348060632125 60.82771051162854,218.89357628740254 60.97524748649448,221.0865630507178 61.034262276487425,222.2004553101724 60.76869572151918,223.2099168075947 60.945740091614425,223.90609528761706 61.034262276487425,224.70669865963282 61.12278446147684,225.57691743510077 61.034262276487425,227.45658188094967 60.65066614164971,228.0483258010354 58.67367067676969,228.43121834035264 57.729434037115425,228.6052602517011 56.46061605226714,228.84891876779147 54.48362058761995,229.37104353209725 53.62790613283869,229.61470146285137 51.79844764305744,230.3804823179089 51.20829974312801,230.55452316478477 49.290319068473764,231.563958202285 47.46086057880893,232.43415825485135 46.48711654392537,232.95627714597504 45.3068207440665,233.47839518170804 43.89046578435227,234.0701279217319 42.68066258961335,234.45301322676823 41.29381502477918,234.90551344896085 41.08726325968746,235.32320539161447 40.8512040998321,235.74089678682503 40.644652334973216,237.34204206438153 40.61514493986033,239.2564443385054 40.58563754498027,240.57911555707688 40.58563754498027,242.5631120936887 40.58563754498027,243.67692929823534 40.5561301499838,245.06919533089967 40.644652334973216,247.08797027679975 40.99874107481446,248.75867090796237 41.824948134832084,250.6381986515189 42.44460342952516,252.10004590151948 42.85770695947576,253.10941270930925 43.62489922950044,254.1187763210619 43.595391834387556,254.60605416214094 44.539628474158235,256.6595740232151 45.336328139179386,258.29541936173337 45.89696864399593,259.5832065953582 46.39859435905237,260.2096958011389 47.01824965386186,261.2190369316668 47.72642713377718,261.84552292275475 47.932978898636065,262.2283748666814 48.40509721869603,263.4117325140978 48.6411563786678,264.07301869790535 49.142782093491405,264.351454575517 49.49687083356548,264.629890209937 49.37884125334676,264.49067242306774 48.99524511850905,264.664694647101 49.67391520331148,265.5 50.94273318827618,264.9779344109411 51.5328810880892,264.49067242306774 52.30007335799746,264.2818456289242 53.24430999788456,263.79458257718943 54.69017235247884,262.9244681323762 55.78194596734829,262.2631795660709 56.785197397111915,261.74110867636045 57.13928613718599,261.3930609416275 57.021256557200104,260.9754031582561 56.165542102302425,259.2351565047866 55.398349832510576,257.7733419741562 54.365591007634066,258.0169781947334 53.06726562778931,258.4346398540365 52.595147307845764,257.87775752015295 52.506625122972764,257.3904846800433 51.62140327307861,256.58996339704026 51.473866298096254,256.10268858846393 50.91322579316329,255.1629422113765 50.47061486833263,255.26735861226916 49.61490041343495,255.6502184564015 49.054259908618405,255.89385629960452 48.11002326873131,256.13749395660125 47.16578662884422,256.9380163758178 45.98549082898535,257.04243219527416 45.92647603910882,258.19100395267014 46.54613133391831,259.443986604776 46.98874225874897,259.5832065953582 48.13953066361137,259.3047665532504 48.99524511850905,258.8174958943273 49.231304278597236,259.72242652534624 49.821452178410254,261.1146224802069 49.37884125334676,261.2538417413307 48.080515873618424,261.67149915979826 47.932978898636065,262.4023983256484 48.28706763871014,263.16810041625286 48.788693353533745,264.2470411498798 49.26081167347729,265.36078259313945 49.73292999342084,265.4651956540474 50.82470360817388,265.11715198488673 51.296821928117424,264.908325601049 51.56238848308567,264.45586796686985 52.56563991296571,264.07301869790535 52.978743442799896,263.8641916300985 53.62790613283869,263.30731878065853 54.39509840251412,262.9940773754206 55.51637941249646,262.5416170243989 56.19504949741531,262.1587654564937 57.198300927178934,261.2886465470656 56.9032269770978,260.3837203619769 55.92948294233065,258.7478857393435 55.10327588254586,257.59931598836556 54.60165016760584,257.6341211932013 54.808201932464726,257.28606897444115 55.13278327754233,256.6595740232151 54.71967974747531,255.58060760985245 53.981994872679934,254.22319306398276 53.56889134272933,253.1790240954142 52.71317688783165,251.4735407581029 51.97549201303627,250.35975079616765 50.64765923831146,250.81222843754222 50.02800394326914,251.09067589766346 48.021501083741896,251.96082264269353 46.75268309889361,252.5177153130062 44.775687634246424,253.52708079837612 44.0675101543311,253.8751371210965 43.949480574345216,254.5364430876216 44.33307670929935,255.685023873928 44.92322460922878,256.55515807829215 46.54613133391831,256.1722993210424 46.959234863868915,255.92866169055924 48.34608242858667,255.37177497905213 48.877215538639575,255.0237202902499 49.17228948848788,255.1629422113765 49.11327469849493,255.19774768213392 50.441107473219745,255.44138587114867 50.94273318827618,255.26735861226916 51.44435890309978,256.27671539140283 51.85746243305039,256.79879522990086 52.359088147990406,257.49490035130293 52.65416209795512,257.87775752015295 53.0967730229022,258.3650296154956 54.21805403253529,258.22580909277895 55.398349832510576,257.84295234191814 56.10652731230948,259.16554644095595 57.05076395208016,260.8013789204415 56.962241767090745,261.4278657321993 55.87046815245412,262.08915603123023 55.07376848743297,262.506812355452 54.48362058761995,261.2886465470656 53.62790613283869,259.5484016035043 52.949236047803424,258.1213936609274 52.21155117289163,258.19100395267014 51.09027016302571,258.8523009660421 50.05751133838203,259.2699615309248 49.43785604345612,259.82684143283404 50.14603352325503,261.4626705190167 50.23455570836086,261.84552292275475 48.99524511850905,262.437203006004 48.28706763871014,262.9940773754206 48.58214158855844,263.62055987815256 48.96573772362899,264.2818456289242" stroke="#4DD2FF" stroke-linecap="round" stroke-linejoin="round" stroke-width="0.5"><title>2025-07-30 10.2km</title><desc>9223370282972532807</desc></polyline></svg>