<?xml version="1.0" encoding="utf-8" ?>
<svg baseProfile="full" height="300mm" version="1.1" viewBox="0,0,200,300" width="200mm" xmlns="http://www.w3.org/2000/svg" xmlns:ev="http://www.w3.org/2001/xml-events" xmlns:xlink="http://www.w3.org/1999/xlink"><defs /><rect fill="#222222" height="300" width="200" x="0" y="0" /><text fill="#FFFFFF" style="font-size:12px; font-family:Arial; font-weight:bold;" x="10" y="20">Over 10km Runs</text><text fill="#FFFFFF" style="font-size:4px; font-family:Arial" x="10" y="280">Runner</text><text fill="#FFFFFF" style="font-size:9px; font-family:Arial" x="10" y="290">chenbuer</text><text fill="#FFFFFF" style="font-size:4px; font-family:Arial" x="65" y="280">SPECIAL TRACKS</text><rect fill="yellow" height="2.6" width="2.6" x="65" y="283" /><text fill="#FFFFFF" style="font-size:3px; font-family:Arial" x="70" y="285.5">Over 20.0 km</text><rect fill="red" height="2.6" width="2.6" x="65" y="287" /><text fill="#FFFFFF" style="font-size:3px; font-family:Arial" x="70" y="289.5">Over 40.0 km</text><text fill="#FFFFFF" style="font-size:4px; font-family:Arial" x="120" y="280">STATISTICS</text><text fill="#FFFFFF" style="font-size:3px; font-family:Arial" x="120" y="285">Number: 2</text><text fill="#FFFFFF" style="font-size:3px; font-family:Arial" x="120" y="290">Weekly: 2.0</text><text fill="#FFFFFF" style="font-size:3px; font-family:Arial" x="141" y="285">Total: 20.9 km</text><text fill="#FFFFFF" style="font-size:3px; font-family:Arial" x="141" y="290">Avg: 10.4 km</text><text fill="#FFFFFF" style="font-size:3px; font-family:Arial" x="167" y="285">Min: 10.2 km</text><text fill="#FFFFFF" style="font-size:3px; font-family:Arial" x="167" y="290">Max: 10.7 km</text><polyline fill="none" points="139.0,72.31699756218586 135.54999999981374,65.95094032329507 132.54999999981374,62.94473794638179 128.80000000074506,57.285988953197375 125.3500000005588,56.578643941436894 115.1499999994412,60.29220181249548 109.45000000018626,62.237395401345566 100.59999999962747,67.89612712932285 95.04999999981374,69.84131160355173 86.95000000018626,70.37181605538353 77.5,74.43901109194849 69.84999999962747,77.09152410260867 59.799999999813735,79.21353138925042 53.799999999813735,79.9208665350452 53.19999999925494,82.04287012212444 54.84999999962747,88.23203140322585 54.40000000037253,94.24433690262958 47.64999999944121,101.31760897359345 46.0,104.50057134788949 47.64999999944121,107.86035819223616 53.049999999813735,111.92745927756187 53.799999999813735,116.34820976550691 59.04999999888241,122.7140693141846 66.54999999981374,123.06772744597401 72.3999999994412,119.53114266134799 78.3999999994412,118.64699526049662 84.25000000093132,118.47016572300345 91.15000000037253,115.64089049689937 98.79999999981374,111.92745927756187 105.55000000074506,110.68964698293712 110.19999999925494,110.33598615333904 119.65000000037253,109.09817264485173 127.1499999994412,105.3847264549695 130.00000000093132,103.6164157591993 134.5,99.19563058938365 139.8999999994412,97.42731314909179 146.80000000074506,99.01879893208388 150.55000000074506,98.66513555962592 153.40000000037253,95.4821617405396 150.55000000074506,89.46986082661897 146.5,83.2807042663917 140.34999999962747,74.26217673707288 136.75000000093132,68.07296217768453 132.1000000005588,60.99954520561732 127.30000000074506,56.40180764021352 117.25,59.761694065644406 112.29999999981374,60.99954520561732 105.1000000005588,64.71309296006802 98.34999999962747,68.78030217939522 91.45000000018626,69.48764187225606 85.6000000005588,71.07915505510755 80.95000000018626,72.84750120469835 74.79999999981374,75.5000168166589 70.15000000037253,76.73785595176741 61.90000000037253,78.50619593518786 53.799999999813735,79.56719900085591 53.34999999962747,81.68920305068605 54.700000000186265,87.34786695067305 54.84999999962747,91.94551684160251 52.59999999962747,97.25048129993957 47.34999999962747,101.49444038025104 46.299999999813735,104.67740240762942 47.799999999813735,107.86035819223616 53.799999999813735,114.04942101426423 54.09999999962747,117.76284737873357 59.799999999813735,123.06772744597401 63.40000000037253,123.77504347811919 72.25,119.70797208335716 80.79999999981374,118.82382477936335 88.29999999981374,117.23235841852147 97.45000000018626,112.81161033804528 101.04999999981374,111.75062900723424 107.34999999962747,110.51281657768413 109.59999999962747,110.33598615333904 112.00000000093132,110.33598615333904 119.20000000018626,109.62866426445544 125.5,106.97620443406049 130.00000000093132,103.97007805248722 133.90000000037253,100.43345165043138 135.54999999981374,98.84196725557558 140.65000000037253,97.42731314909179 146.34999999962747,98.66513555962592 152.05000000074506,97.60414498054888 152.79999999981374,92.47601406800095 149.79999999981374,87.52469987981021 143.95000000018626,79.56719900085591 137.95000000018626,69.84131160355173 134.04999999981374,63.652080182801 129.8500000005588,57.285988953197375 126.40000000037253,56.224971319781616 120.1000000005588,58.347005892544985 114.69999999925494,59.93853000027593 108.1000000005588,62.59106671239715 101.04999999981374,67.54245697450824 95.5,70.01814644015394 89.34999999962747,69.84131160355173 85.0,71.25598975655157 79.45000000018626,73.20117020350881 71.79999999981374,76.56102184706833 67.0,77.26835814898368 56.49999999906868,78.50619593518786 53.5,79.56719900085591 54.40000000037253,84.16487093479373 54.700000000186265,88.93936261814088 54.549999999813735,93.00651112059131 51.39999999944121,98.3114721106831 47.049999999813735,101.14077754726168 46.60000000055879,106.44571194774471 48.24999999906868,108.39085021661595 52.59999999962747,110.51281657768413 53.94999999925494,116.70186928485055 58.59999999962747,122.53724021930248 62.35000000055879,124.12870137882419 65.5,123.95187243795954 69.84999999962747,120.94577749969903 74.65000000037253,119.00065427855588 79.45000000018626,118.64699526049662 89.79999999981374,116.70186928485055 98.34999999962747,112.6347801645752 105.84999999962747,110.51281657768413 117.40000000037253,109.80549476540182 121.00000000093132,108.9213420668384 123.25,107.6835274794139 126.54999999981374,105.7383883629227 128.5,104.50057134788949 133.75,100.78711463732179 136.30000000074506,98.3114721106831 139.75000000093132,97.42731314909179 142.0,97.42731314909179 145.15000000037253,98.48830384411849 150.55000000074506,98.66513555962592 153.55000000074506,93.71384025458246 150.40000000037253,88.40886423550546 148.0,84.5185374666471 144.70000000018626,80.09770027315244 143.5,77.26835814898368 144.8500000005588,75.32318257726729 140.80000000074506,74.08534236298874 134.79999999981374,65.06676373211667 130.75,58.87751410133205 129.40000000037253,56.578643941436894 126.25,56.048134980374016 116.95000000018626,59.05435013305396 109.45000000018626,61.70688829023857 105.84999999962747,63.82891569414642 101.34999999962747,67.18878674204461 97.0,68.9571371312486 94.45000000018626,69.31080697802827 90.84999999962747,68.9571371312486 85.8999999994412,70.54865083412733 80.20000000018626,72.67066667613108 70.90000000037253,76.20735358051024 64.29999999981374,77.97569414263126 61.15000000037253,78.50619593518786 54.40000000037253,79.03669755451847 53.34999999962747,81.33553590113297 54.84999999962747,87.34786695067305 53.64999999944121,95.4821617405396 50.5,99.01879893208388 46.450000000186265,102.0249344848562 47.799999999813735,107.6835274794139 52.299999999813735,110.15915571013466 54.09999999962747,114.40308103454299 55.299999999813735,119.00065427855588 59.799999999813735,122.89089838997461 63.25,123.77504347811919 68.49999999906868,122.00675281975418 75.25,118.29333616606891 80.5,118.64699526049662 86.79999999981374,117.58601774426643 92.04999999981374,115.11040084250271 100.0,111.75062900723424 104.79999999981374,110.51281657768413 111.8500000005588,110.15915571013466 118.0,109.62866426445544 124.45000000018626,106.97620443406049 129.54999999981374,104.14690916996915 134.34999999962747,99.90295702568255 137.80000000074506,97.25048129993957 142.44999999925494,97.42731314909179 148.45000000018626,99.01879893208388 152.65000000037253,97.25048129993957 153.8500000005588,94.24433690262958 150.8500000005588,89.11619537335355 146.65000000037253,82.57337058510166 140.80000000074506,74.26217673707288 135.25,64.88992835569661 130.75,57.99333365645725 127.45000000018626,55.87129862117581 122.79999999981374,56.75548022345174 118.75,58.52384198142681 114.69999999925494,59.93853000027593 108.40000000037253,62.237395401345566 105.1000000005588,64.71309296006802 99.84999999962747,68.07296217768453 91.8999999994412,69.13397206400987 87.25,69.84131160355173 83.94999999925494,70.9023203337565 78.84999999962747,73.02433571347501 74.3500000005588,74.79267974372488 69.25,76.73785595176741 65.3500000005588,77.44519217603374 61.0,78.68302982777823 59.04999999888241,78.85986370081082 55.0,78.85986370081082 53.049999999813735,80.45136769220699 54.25,82.75020403461531 55.14999999944121,91.06135441281367 51.84999999962747,97.25048129993957 48.549999999813735,99.54929384589195 46.60000000055879,105.3847264549695 49.74999999906868,108.56768085237127 53.799999999813735,112.98844049265608 55.14999999944121,119.3543132195482 58.14999999944121,121.65309445664752 63.25,123.77504347811919 69.09999999962747,121.47626524663065 72.25,119.3543132195482 80.95000000018626,118.47016572300345 87.1000000005588,117.23235841852147 92.5,114.9335709195584 96.84999999962747,113.34210074378643 102.69999999925494,111.22013808169868 109.15000000037253,109.98232524760533 112.45000000018626,109.80549476540182 118.45000000018626,109.45183374418411 124.1499999994412,107.50669674668461 128.20000000018626,105.20789547229651 133.0,100.96394610172138 134.95000000018626,99.19563058938365 138.54999999981374,97.25048129993957 147.1000000005588,98.3114721106831 149.79999999981374,98.66513555962592 152.34999999962747,96.36632176057901 153.70000000018626,94.42116907984018 152.79999999981374,92.29918167821597 147.25,83.98803763953038 144.1000000005588,78.85986370081082 139.6000000005588,72.49383212882094 135.1000000005588,65.24359908886254 131.3500000005588,65.59726974461228 124.8999999994412,61.70688829023857 118.90000000037253,60.99954520561732 112.45000000018626,61.17638100543991 103.59999999962747,66.30461082526017 95.95000000018626,71.60965910204686 91.29999999981374,75.32318257726729 88.0,80.62820137257222 86.65000000037253,82.92703746480402 80.20000000018626,88.58569704904221 76.0,90.53085672378074 72.09999999962747,90.7076893063495 68.49999999906868,90.7076893063495 62.35000000055879,90.88452186889481 53.799999999813735,96.36632176057901 48.84999999962747,101.14077754726168 47.049999999813735,104.50057134788949 48.09999999962747,107.15303522453178 53.5,110.8664773683995 55.450000000186265,117.40918809094 57.25,121.12260676757433 62.799999999813735,122.89089838997461 70.15000000037253,120.41528958000708 72.54999999981374,118.47016572300345 80.20000000018626,118.11650658934377 83.79999999981374,117.40918809094 90.25,115.64089049689937 92.5,114.22625103394967 100.0,111.04330773430411 102.40000000037253,110.51281657768413 106.29999999981374,109.98232524760533 108.84999999962747,109.62866426445544 110.34999999962747,109.62866426445544 112.75,109.80549476540182 115.75,109.45183374418411 119.04999999981374,108.56768085237127 123.25,106.97620443406049 126.40000000037253,105.91521928785369 130.15000000037253,103.08592217427213 132.25,100.96394610172138 135.54999999981374,97.95780858397484 143.20000000018626,96.71998563408852 145.75,97.42731314909179 149.79999999981374,98.66513555962592 153.40000000037253,95.12849759729579 150.55000000074506,89.11619537335355 147.70000000018626,84.16487093479373 143.65000000037253,78.50619593518786 145.45000000018626,75.85368523723446 149.5,73.37800467421766 150.40000000037253,73.55483912513591" stroke="#4DD2FF" stroke-linecap="round" stroke-linejoin="round" stroke-width="0.5"><title>2025-08-01 10.7km</title><desc>9223370282800153107</desc></polyline><polyline fill="none" points="92.11168973799795,262.5150120575563 91.36416906490922,261.6797040599049 90.61664839158766,259.5914268847555 90.34124603820965,258.75611314203707 89.3183230117429,257.9207977578044 89.00357746519148,257.2247003504308 88.01999763213098,255.04358775823493 87.23313376563601,253.37294075658428 86.40692670550197,251.98072990583023 85.85612199897878,250.77414347982267 85.1872877124697,249.3819241168385 84.6364830059465,248.40736784928595 84.47911023255438,247.8040699925623 84.7938557791058,247.38640174389002 85.81677880580537,246.78310243791202 88.4921159518417,245.53009345085593 89.98715729825199,244.64834417155362 91.12810990470462,244.27708076979616 92.1903761245776,243.85940905520692 93.33132873103023,243.25610474287532 95.53454755758867,242.14230991652585 96.32141142408364,241.77104432572378 96.75418655062094,241.44618666765746 98.99674857011996,240.70365394561668 99.78361243684776,240.23957033568877 101.7507721032016,239.4506270357524 102.85238151624799,238.84731646522414 103.48187260935083,238.5688651437522 105.0556003425736,237.64069275491056 106.23589614219964,237.03737961512525 108.08502622880042,236.294839190552 109.34400841523893,235.36666183543275 109.81612673494965,234.2528463334893 109.65875396179035,232.81416365675977 109.61941076838411,231.05061050565564 109.38335160841234,229.8903741785325 109.38335160841234,228.12680889468174 109.30466522183269,226.27041647935403 109.30466522183269,224.3211957157764 109.10794925526716,222.51119700141135 108.87189009529538,221.3973478069529 108.7932037084829,220.23708512505982 108.71451732190326,217.4988526359666 108.7538605153095,216.33857930998784 108.43911496875808,215.31753616261994 108.20305580855347,213.55391040237737 108.43911496875808,212.440037729888 108.39977177535184,211.51180827250937 108.47845816193148,210.21228362582042 108.36042858171277,208.40222481670207 108.24239900195971,206.17444954410894 108.00633984198794,203.90025023950147 107.84896706859581,202.41505228704773 107.57356471545063,200.04800732058357 107.61290790862404,199.16616366771632 107.61290790862404,198.05225327974767 107.61290790862404,196.6134480399778 107.21947597549297,195.17463792816852 107.18013278208673,193.08603393498925 107.10144639550708,191.69362556919805 106.90473042894155,190.3940403108718 106.94407362211496,189.2801069256966 107.0227600086946,188.4446549702261 107.84896706859581,186.58808918786235 107.770280682249,185.9847035619896 107.92765345540829,184.63868638529675 107.84896706859581,184.0352979908348 107.80962387518957,183.1070064799569 107.57356471545063,180.78626882930985 107.4161919420585,179.34740511974087 107.14078958868049,178.32627307926305 107.73093748860992,177.63004528085003 108.59648774191737,177.3051385845174 110.87839295482263,176.19117088214261 112.2160615278408,175.63418593557435 113.75044606765732,174.9379537256027 116.1897240539547,173.96322671469534 118.07819733349606,173.22057606247836 119.0617771667894,172.338676726853 119.17980674677528,171.50319145715912 119.17980674677528,170.2963765002205 117.96016775374301,168.30048270197585 116.54381279391237,165.88683116386528 115.56023296061903,164.07658351110877 114.26190758077428,162.12707741218037 113.39635732793249,160.78098464634968 112.4914638812188,159.4348876150907 111.19313850137405,157.71744727928308 110.87839295482263,157.20685557014076 110.52430421486497,156.51059315970633 110.32758824829943,156.04641758516664 109.22597883502021,156.32492299069418 107.80962387518957,157.11402064800495 105.99983698246069,157.9495342169248 104.97691395599395,158.3208730533952 103.5212158029899,159.29563595468062 101.59339932980947,160.1775623667636 99.6262396632228,161.1523210077139 99.07543495669961,162.45199571663397 97.89513915707357,163.0089979460172 97.73776638368145,163.47316591264098 99.23280773009174,165.74758161845966 100.13770117680542,166.90799310358125 101.514712942997,169.32163883984322 102.49829277629033,171.13186414309894 103.75727496249601,173.26699176622787 104.85888437600806,175.86626308527775 105.13428672915325,176.37683236863813 105.76377782225609,178.69759410523693 106.27523933560587,181.43607664926094 106.47195530217141,183.47832332763937 106.62932807556354,186.30960362087353 106.5899848821573,188.72313913799007 106.78670084872283,189.37293481934466 106.78670084872283,189.92990175524028 107.0227600086946,191.8792802816024 107.18013278208673,194.84974464800325 107.53422152204439,197.07757929473883 107.61290790862404,199.44464080844773 107.770280682249,201.85810171655612 107.96699664881453,204.78208406764315 108.04568303516135,206.26727374689654 107.69159429543652,207.61322241014568 107.92765345540829,208.54146038350882 108.04568303516135,209.6089315461868 108.16371261514723,210.76922324681072 108.04568303516135,213.2754425079329 107.53422152204439,214.06443440139992 104.89822756918147,214.57495778714656 103.63924538297579,214.80701366893481 101.94748806976713,215.13189169039833 99.31149411667138,215.82805804282543 98.17054151045159,216.15293528384063 95.7312635241542,217.17397642388823 94.9443996574264,217.4060308863991 92.38709209137596,218.75194426972303 89.94781410507858,219.91221100647817 88.64948872523382,220.60836952799582 87.07576099201106,221.30452690899256 85.1872877124697,222.09350389565225 83.57421678607352,222.60401763572008 81.72508669970557,223.20735126530053 81.44968434632756,223.76427385551506 81.13493879977614,224.3211957157764 80.85953644663095,226.45605608585174 80.82019325322472,229.00859245134052 80.7808500600513,230.7721540761413 80.7808500600513,233.41748279161402 80.7808500600513,234.9025723976374 80.74150686664507,236.75892710790504 80.85953644663095,239.4506270357524 81.3316547665745,241.67822787730256 82.43326417962089,244.18426486870158 83.25947123928927,246.133394535369 83.8102759460453,247.47921694576507 84.83319897274487,248.8250350947783 84.7938557791058,249.47473888288368 86.05283796554431,252.2127653642965 87.11510418565013,254.39389248233056 87.86262485873885,256.110942127154 88.53145914524794,256.946261068224 89.35766620514914,258.2920492422418 90.30190284503624,259.12736389701604 90.57730519818142,259.6378331556043 91.2067962915171,261.2156433521304 91.52154183830135,262.0973582638835 92.1903761245776,262.4686061007087 92.66249444475397,262.83985361328814 92.50512167112902,262.65422989742365 91.99366015801206,262.8862595295068 92.89855360449292,264.0 94.59031091770157,263.30391254794085 95.37717478396371,262.65422989742365 96.40009781066328,262.37579417190864 97.6590799971018,261.72611010295805 99.5868964700494,260.56595750985434 101.04259462305345,259.6842394214764 102.38026319630444,258.98814490184304 102.85238151624799,258.524081255513 102.69500874285586,257.9672042110469 101.55405613640323,255.64687533973483 100.53113310993649,253.69778929889435 99.15412134351209,254.02263759300695 97.42302083713003,254.579519805382 96.79352974379435,253.8370100269094 96.6755001640413,253.1873129067244 95.4952043639496,252.11995119604398 95.29848839738406,251.47025145130465 94.55096772429533,250.21725628184504 93.9608198243659,250.35647814971162 92.81986721791327,250.86695794187835 92.07234654482454,251.1918083995115 90.8133643581532,251.51665860880166 89.55438217171468,252.58402183445287 87.98065443872474,252.72324292705161 87.9019680521451,254.25467193691293 88.72817511181347,255.92531547302497 89.3183230117429,256.110942127154 90.85270755155943,255.73968873769627 91.99366015801206,255.08999452579883 92.30840570479631,256.29656870046165 93.09526957105845,258.1528299736092 92.50512167112902,258.3384556551464 90.77402116474696,258.89533221308375 90.57730519818142,259.86986443420756 91.0494235183578,260.8908005550329 91.71825780486688,262.32938819983974 92.34774889796972,263.8143767908914 92.97723999107257,263.95359420540626 94.43293814430945,263.4895359798684 95.06242923741229,263.21110080141807 95.41651797760278,262.60782395585557 96.75418655062094,262.0973582638835 97.30499125714414,261.81892217346467 98.17054151045159,261.07642504092655 99.1934645366855,260.65876983391354 100.68850588332862,260.0554893659137 101.59339932980947,259.5450206086971 102.93106790282764,258.3848620627541 102.53763596946374,257.1782938159886 101.23931058985181,254.9971809858107 100.13770117680542,253.46575465117348 99.46886689029634,253.51216159094474 99.74426924320869,253.04809196593123 100.17704436997883,252.2127653642965 99.6262396632228,250.77414347982267 98.6426598301623,248.9642574186728 98.0918551236391,247.57203212723834 96.95090251718648,245.2980543441663 95.96732268412597,243.81300106155686 94.19687898433767,244.41630458339932 93.37067192443646,244.78756786356098 90.69533477816731,245.94776352361077 89.00357746519148,246.69028708405676 86.36758351232857,248.03610773119726 85.42334687244147,248.50018282816745 85.26597409928218,249.3819241168385 85.77743561239913,250.91336516526644 86.5642994788941,252.07354410440894 88.72817511181347,251.56306576138013 89.27897981833667,251.23821558742202 91.12810990470462,250.49569997208891 91.83628738485277,250.03162705368595 92.22971931798384,250.21725628184504 92.15103293140419,250.26366357618826 93.92147663095966,250.5885144948843 94.59031091770157,250.35647814971162 95.25914520397782,251.7022871885565 95.80994991073385,252.39839363988722 96.47878419724293,253.32653380176635 96.87221613060683,253.8370100269094 97.46236403053626,254.48670615401352 98.95740537671372,254.30107879039133 100.53113310993649,253.79060312258662 101.47536974982359,255.5540619212843 102.73435193602927,257.7351718939317 102.61632235627621,258.57048764292267 101.16062420327216,259.45220804165 100.09835798339918,260.00908314061235 99.31149411667138,258.3848620627541 98.17054151045159,256.0645354713779 97.2656480637379,254.1618582145602 96.2820682306774,254.25467193691293 94.78702688403428,255.13640128809493 93.4100151178427,255.69328204123303 92.5838080579415,256.43578857713146 93.52804469759576,258.6168940253556 93.64607427781448,259.12736389701604 91.99366015801206,259.916270674672 91.0494235183578,260.65876983391354 91.44285545125604,261.49407983757555 91.95431696483865,262.37579417190864" stroke="#4DD2FF" stroke-linecap="round" stroke-linejoin="round" stroke-width="0.5"><title>2025-07-30 10.2km</title><desc>9223370282972532807</desc></polyline></svg>