<?xml version="1.0" encoding="utf-8" ?>
<svg baseProfile="full" height="200mm" version="1.1" viewBox="0,0,200,200" width="200mm" xmlns="http://www.w3.org/2000/svg" xmlns:ev="http://www.w3.org/2001/xml-events" xmlns:xlink="http://www.w3.org/1999/xlink"><defs /><rect fill="#1a1a1a" height="200" width="200" x="0" y="0" /><rect fill="#1a1a1a" height="200" width="180" x="10" y="0" /><text alignment-baseline="middle" fill="#e1ed5e" style="dominant-baseline: central; font-size:9.0px; font-family:Arial;" text-anchor="middle" x="100.0" y="100.0">2025</text><line stroke="#e1ed5e" stroke-width="0.3" x1="100.0" x2="100.0" y1="15.0" y2="10.0" /><path d="M 100.0 14.0 a86.0,86.0 0 0,1 42.46469731375804,11.215312516191453" fill="none" id="id1" stroke="none" /><text fill="#e1ed5e" style="font-size:6.75px; font-family:Arial;" text-anchor="middle"><textPath startOffset="22.20632615414155" xlink:href="#id1">January</textPath></text><line stroke="#e1ed5e" stroke-width="0.3" x1="143.23703022742887" x2="145.7803849466894" y1="26.81831364943548" y2="22.513508569990506" /><path d="M 143.74570117128098 25.957352633546492 a86.0,86.0 0 0,1 28.547481713284135,27.462654790039103" fill="none" id="id2" stroke="none" /><text fill="#e1ed5e" style="font-size:6.75px; font-family:Arial;" text-anchor="middle"><textPath startOffset="19.985693538727396" xlink:href="#id2">February</textPath></text><line stroke="#e1ed5e" stroke-width="0.3" x1="172.23445277983987" x2="176.4835382374775" y1="55.19839476539836" y2="52.563006222186495" /><path d="M 173.08426987136738 54.67131705675599 a86.0,86.0 0 0,1 12.851231095245387,41.99856678651699" fill="none" id="id3" stroke="none" /><text fill="#e1ed5e" style="font-size:6.75px; font-family:Arial;" text-anchor="middle"><textPath startOffset="22.20632615414155" xlink:href="#id3">March</textPath></text><line stroke="#e1ed5e" stroke-width="0.3" x1="184.98032266829074" x2="189.97916517819016" y1="98.17113171792111" y2="98.06355123074" /><path d="M 185.9800911702706 98.14961562048488 a86.0,86.0 0 0,1 -9.607161424134198,41.387399972396054" fill="none" id="id4" stroke="none" /><text fill="#e1ed5e" style="font-size:6.75px; font-family:Arial;" text-anchor="middle"><textPath startOffset="21.466115282336823" xlink:href="#id4">April</textPath></text><line stroke="#e1ed5e" stroke-width="0.3" x1="174.80103733775053" x2="179.2010983576182" y1="140.37084112569926" y2="142.7455964860345" /><path d="M 175.68104954172406 140.8457921977663 a86.0,86.0 0 0,1 -30.038265399797805,32.042727171017184" fill="none" id="id5" stroke="none" /><text fill="#e1ed5e" style="font-size:6.75px; font-family:Arial;" text-anchor="middle"><textPath startOffset="22.206326154141568" xlink:href="#id5">May</textPath></text><line stroke="#e1ed5e" stroke-width="0.3" x1="143.8653032363475" x2="146.44561519142675" y1="172.8068346515853" y2="177.08958963109032" /><path d="M 144.38136562736335 173.6633856474863 a86.0,86.0 0 0,1 -40.68145358897372,12.25698825130547" fill="none" id="id6" stroke="none" /><text fill="#e1ed5e" style="font-size:6.75px; font-family:Arial;" text-anchor="middle"><textPath startOffset="21.466115282336833" xlink:href="#id6">June</textPath></text><line stroke="#e1ed5e" stroke-width="0.3" x1="102.19456741930631" x2="102.32365962044197" y1="184.97166512339345" y2="189.96999836594603" /><path d="M 102.22038585953345 185.97133177190398 a86.0,86.0 0 0,1 -42.740103519485714,-10.115201625700543" fill="none" id="id7" stroke="none" /><text fill="#e1ed5e" style="font-size:6.75px; font-family:Arial;" text-anchor="middle"><textPath startOffset="22.20632615414155" xlink:href="#id7">July</textPath></text><path d="M 98.73552117531835 120.96189622390904 l -0.2912937929247532 4.828922508445184 a25.837700348963857,25.837700348963857 0 0,0 -0.44371604388912383,-0.030601256265280367 l 0.3743725975928071 -4.823192907663619" fill="red" stroke="none" /><path d="M 98.01472825383883 120.90594882070398 l -1.1312042028670009 11.912171326989107 a32.96576151659916,32.96576151659916 0 0,0 -0.5644482509258484,-0.058507369098115686 l 1.3360850503984427 -11.890934589435231" fill="red" stroke="none" /><path d="M 97.65516085044442 120.86867818915974 l -0.449561675505039 4.001024093303901 a25.02620162129037,25.02620162129037 0 0,0 -0.427677022241332,-0.05178573140314271 l 0.5183661207977603 -3.992692833175409" fill="red" stroke="none" /><path d="M 97.2962882734958 120.8252237178851 l -2.320634782700139 17.87458997328911 a39.024602977815775,39.024602977815775 0 0,0 -0.6654092650781468,-0.09221966091679487 l 2.627972638965117 -17.83199574687971" fill="red" stroke="none" /><path d="M 96.93821686468263 120.77559828337769 l -2.648774114237872 17.97314326610908 a39.16727506183409,39.16727506183409 0 0,0 -0.6661498082032208,-0.10403889997859991 l 2.95775978604961 -17.924886058783375" fill="red" stroke="none" /><path d="M 96.22490169976321 120.6578951692458 l -0.7152091023147291 3.913729785203558 a24.978543061426297,24.978543061426297 0 0,0 -0.4222948441724673,-0.0809338119558513 l 0.7824715610588915 -3.900838774899239" fill="red" stroke="none" /><path d="M 95.86986931433489 120.58985236759428 l -1.317864404971627 6.569921294028888 a27.700793415680373,27.700793415680373 0 0,0 -0.4667036778880161,-0.09780229337630032 l 1.43075954428903 -6.546263019926046" fill="red" stroke="none" /><path d="M 95.51606077576429 120.51570834832081 l -3.4993660340062114 16.010915707700846 a37.3888676985037,37.3888676985037 0 0,0 -0.627562976225648,-0.1428312902193183 l 3.774449159624722 -15.94830768390384" fill="red" stroke="none" /><path d="M 95.16358092515715 120.4354850818985 l -4.394388684275235 18.567759123414685 a40.08067951551085,40.08067951551085 0 0,0 -0.6700090899609605,-0.1646719330722339 l 4.7133510589794065 -18.48936593202842" fill="red" stroke="none" /><path d="M 94.81253420990036 120.34920634021253 l -7.955509382311938 31.20758931483051 a53.20564795769799,53.20564795769799 0 0,0 -0.8855182122677531,-0.23387340820970232 l 8.49151803739118 -31.066024557317228" fill="red" stroke="none" /><path d="M 94.46302465271185 120.25689768951611 l -5.241758103147544 19.17685215280154 a40.88033416475493,40.88033416475493 0 0,0 -0.677190194923159,-0.19138071335531082 l 5.571079466175316 -19.083782646107707" fill="red" stroke="none" /><path d="M 94.11515582081647 120.15858648285463 l -7.044127932810639 24.12972337180155 a46.136890983840246,46.136890983840246 0 0,0 -0.7604348843347284,-0.22911279270757892 l 7.458437791585613 -24.004895209988245" fill="red" stroke="none" /><path d="M 93.76903079525671 120.05430185196036 l -8.191314013862751 26.363648800117026 a48.60687601539907,48.60687601539907 0 0,0 -0.7968718997101439,-0.2551332179020011 l 8.643907258663836 -26.21874273555532" fill="red" stroke="none" /><path d="M 93.42475214034765 119.94407469862007 l -8.8294919995161 26.781659299840893 a49.19959580955502,49.19959580955502 0 0,0 -0.8020243225174055,-0.272090195387683 l 9.28918605497073 -26.625706117555087" fill="red" stroke="none" /><path d="M 93.08242187328487 119.8279376855182 l -8.992339991726599 25.774852663299853 a48.29844699505122,48.29844699505122 0 0,0 -0.7826198459227566,-0.28061963246749816 l 9.434679398279082 -25.616245489792398" fill="red" stroke="none" /><path d="M 92.7421414339146 119.70592522655815 l -21.773575698256195 59.117775679674445 a84.0,84.0 0 0,0 -1.3525191169588682,-0.5114069995734671 l 22.787965035975347 -58.734220429994345" fill="red" stroke="none" /><path d="M 92.40401165467489 119.57807347666478 l -7.565405608695182 19.499248834282753 a41.915450440412556,41.915450440412556 0 0,0 -0.6704055424355521,-0.26676820092867926 l 7.899932227172593 -19.366133788948005" fill="red" stroke="none" /><path d="M 92.06813273071674 119.44442032107085 l -10.232557878952836 25.08440315542789 a48.091189018021346,48.091189018021346 0 0,0 -0.763799242105349,-0.3192681451459897 l 10.662828580555647 -24.904549967261925" fill="red" stroke="none" /><path d="M 91.7346041902142 119.30500536409082 l -13.913024868712093 32.495844833373646 a56.349005536678085,56.349005536678085 0 0,0 -0.8883805112757366,-0.3894399090466266 l 14.470326054645572 -32.25154037103257" fill="red" stroke="none" /><path d="M 91.40352486487194 119.15986991738527 l -5.166018594547399 11.514049968905919 a33.61986904867368,33.61986904867368 0 0,0 -0.525962045742746,-0.24144337839120256 l 5.363448636057565 -11.423419520180643" fill="red" stroke="none" /><path d="M 90.7491055286396 118.85261126421891 l -6.065567473221449 12.361159888219818 a34.769146035769126,34.769146035769126 0 0,0 -0.535024460698392,-0.2682723715197834 l 6.277445841602602 -12.254919675790733" fill="red" stroke="none" /><path d="M 90.42595943632237 118.69057910512821 l -19.826425279503518 38.705431379134446 a64.48790127850069,64.48790127850069 0 0,0 -0.9836219741179526,-0.5145845280130524 l 20.489738156147965 -38.35841743217668" fill="red" stroke="none" /><line stroke="#e1ed5e" stroke-width="0.3" x1="58.666819895761336" x2="56.23545636021788" y1="174.27360380694188" y2="178.64263932499728" /><path d="M 58.180547188652646 175.14741091055294 a86.0,86.0 0 0,1 -31.652253787137756,-30.449443065178592" fill="none" id="id8" stroke="none" /><text fill="#e1ed5e" style="font-size:6.75px; font-family:Arial;" text-anchor="middle"><textPath startOffset="22.20632615414155" xlink:href="#id8">August</textPath></text><path d="M 89.7882731507175 118.34994917583269 l -20.078615941613528 36.08024259634013 a62.29085520961722,62.29085520961722 0 0,0 -0.9324384354607483,-0.5294628788029314 l 20.696703143995485 -35.729276551742565" fill="red" stroke="none" /><path d="M 89.4739219176387 118.17145234162733 l -9.011756389251417 15.557237981736744 a38.978859998331544,38.978859998331544 0 0,0 -0.5776892181984458,-0.34130897270739335 l 9.278213478478245 -15.399810436735601" fill="red" stroke="none" /><path d="M 89.1626897886671 117.98757091392108 l -22.27164319353003 36.96606939369846 a64.15688099202308,64.15688099202308 0 0,0 -0.9410311339528858,-0.5780581817147605 l 22.904653527415224 -36.577222745155325" fill="red" stroke="none" /><path d="M 88.54995079064634 117.60387380957326 l -9.650673543907848 14.837424375919408 a38.69984920732971,38.69984920732971 0 0,0 -0.5552973200531751,-0.3680207842938722 l 9.904645562700985 -14.669105570534217" fill="red" stroke="none" /><path d="M 88.24862548938628 117.40417183066458 l -22.137630082813388 32.78655765221222 a60.56049833312669,60.56049833312669 0 0,0 -0.8589298805870815,-0.5907798040085924 l 22.69871684802336 -32.40063705883852" fill="red" stroke="none" /><path d="M 87.95078237400918 117.19931262002967 l -15.198363579773904 21.69447134538824 a47.48849452986842,47.48849452986842 0 0,0 -0.6654555324637094,-0.47478485347263233 l 15.5695464400865 -21.429642230071387" fill="red" stroke="none" /><path d="M 87.07902340077011 116.55440617244103 l -18.460161497677152 23.65123170795148 a51.0026386143541,51.0026386143541 0 0,0 -0.6874245100684416,-0.5461316057438378 l 18.86454350046295 -23.329966188202516" fill="red" stroke="none" /><path d="M 86.79598089348748 116.32954008644616 l -13.881213184424494 17.167032652335685 a43.077026284302875,43.077026284302875 0 0,0 -0.5725754671149773,-0.47119062869628064 l 14.17465878008416 -16.925546904782223" fill="red" stroke="none" /><path d="M 86.51685102203217 116.09983520530335 l -14.31185947317966 17.08937425346022 a43.290716317670714,43.290716317670714 0 0,0 -0.567179552509532,-0.4833627193462412 l 14.603904502266248 -16.84048714389103" fill="red" stroke="none" /><path d="M 86.24171649860922 115.8653595955263 l -10.78553500673393 12.437335754469178 a37.46253583294143,37.46253583294143 0 0,0 -0.4835479436680833,-0.4266748391317134 l 10.998025303308602 -12.249837773565176" fill="red" stroke="none" /><line stroke="#e1ed5e" stroke-width="0.3" x1="26.63291911575756" x2="22.317208475507996" y1="142.92168965132927" y2="145.44649492493687" /><path d="M 25.769776987707644 143.4266507060508 a86.0,86.0 0 0,1 -11.730757126820373,-40.83630448921669" fill="none" id="id9" stroke="none" /><text fill="#e1ed5e" style="font-size:6.75px; font-family:Arial;" text-anchor="middle"><textPath startOffset="21.46611528233685" xlink:href="#id9">September</textPath></text><line stroke="#e1ed5e" stroke-width="0.3" x1="15.007084014347285" x2="10.007500721073583" y1="101.09737516637583" y2="101.16192664675087" /><path d="M 14.007167355692545 101.11028546245083 a86.0,86.0 0 0,1 10.666146001902534,-42.60595125391555" fill="none" id="id10" stroke="none" /><text fill="#e1ed5e" style="font-size:6.75px; font-family:Arial;" text-anchor="middle"><textPath startOffset="22.20632615414155" xlink:href="#id10">October</textPath></text><line stroke="#e1ed5e" stroke-width="0.3" x1="26.266209847984243" x2="21.928928074336255" y1="57.711370442889674" y2="55.22380399835377" /><path d="M 25.398753493254645 57.213857153982495 a86.0,86.0 0 0,1 29.58750427330803,-30.492523968695096" fill="none" id="id11" stroke="none" /><text fill="#e1ed5e" style="font-size:6.75px; font-family:Arial;" text-anchor="middle"><textPath startOffset="21.46611528233685" xlink:href="#id11">November</textPath></text><line stroke="#e1ed5e" stroke-width="0.3" x1="56.762969772571076" x2="54.21961505331055" y1="26.818313649435495" y2="22.513508569990535" /><path d="M 56.25429882871897 25.957352633546506 a86.0,86.0 0 0,1 42.265352541879196,-11.944610805530505" fill="none" id="id12" stroke="none" /><text fill="#e1ed5e" style="font-size:6.75px; font-family:Arial;" text-anchor="middle"><textPath startOffset="22.20632615414155" xlink:href="#id12">December</textPath></text></svg>