<?xml version="1.0" encoding="utf-8" ?>
<svg baseProfile="full" height="200mm" version="1.1" viewBox="0,0,200,200" width="200mm" xmlns="http://www.w3.org/2000/svg" xmlns:ev="http://www.w3.org/2001/xml-events" xmlns:xlink="http://www.w3.org/1999/xlink"><defs /><rect fill="#1a1a1a" height="200" width="200" x="0" y="0" /><text alignment-baseline="middle" fill="#e1ed5e" style="dominant-baseline: central; font-size:9.0px; font-family:Arial;" text-anchor="middle" x="100.0" y="100.0">2025</text><line stroke="#e1ed5e" stroke-width="0.3" x1="100.0" x2="100.0" y1="15.0" y2="10.0" /><path d="M 100.0 14.0 a86.0,86.0 0 0,1 42.46469731375804,11.215312516191453" fill="none" id="id1" stroke="none" /><text fill="#e1ed5e" style="font-size:6.75px; font-family:Arial;" text-anchor="middle"><textPath startOffset="22.20632615414155" xlink:href="#id1">January</textPath></text><line stroke="#e1ed5e" stroke-width="0.3" x1="143.23703022742887" x2="145.7803849466894" y1="26.81831364943548" y2="22.513508569990506" /><path d="M 143.74570117128098 25.957352633546492 a86.0,86.0 0 0,1 28.547481713284135,27.462654790039103" fill="none" id="id2" stroke="none" /><text fill="#e1ed5e" style="font-size:6.75px; font-family:Arial;" text-anchor="middle"><textPath startOffset="19.985693538727396" xlink:href="#id2">February</textPath></text><line stroke="#e1ed5e" stroke-width="0.3" x1="172.23445277983987" x2="176.4835382374775" y1="55.19839476539836" y2="52.563006222186495" /><path d="M 173.08426987136738 54.67131705675599 a86.0,86.0 0 0,1 12.851231095245387,41.99856678651699" fill="none" id="id3" stroke="none" /><text fill="#e1ed5e" style="font-size:6.75px; font-family:Arial;" text-anchor="middle"><textPath startOffset="22.20632615414155" xlink:href="#id3">March</textPath></text><line stroke="#e1ed5e" stroke-width="0.3" x1="184.98032266829074" x2="189.97916517819016" y1="98.17113171792111" y2="98.06355123074" /><path d="M 185.9800911702706 98.14961562048488 a86.0,86.0 0 0,1 -9.607161424134198,41.387399972396054" fill="none" id="id4" stroke="none" /><text fill="#e1ed5e" style="font-size:6.75px; font-family:Arial;" text-anchor="middle"><textPath startOffset="21.466115282336823" xlink:href="#id4">April</textPath></text><line stroke="#e1ed5e" stroke-width="0.3" x1="174.80103733775053" x2="179.2010983576182" y1="140.37084112569926" y2="142.7455964860345" /><path d="M 175.68104954172406 140.8457921977663 a86.0,86.0 0 0,1 -30.038265399797805,32.042727171017184" fill="none" id="id5" stroke="none" /><text fill="#e1ed5e" style="font-size:6.75px; font-family:Arial;" text-anchor="middle"><textPath startOffset="22.206326154141568" xlink:href="#id5">May</textPath></text><line stroke="#e1ed5e" stroke-width="0.3" x1="143.8653032363475" x2="146.44561519142675" y1="172.8068346515853" y2="177.08958963109032" /><path d="M 144.38136562736335 173.6633856474863 a86.0,86.0 0 0,1 -40.68145358897372,12.25698825130547" fill="none" id="id6" stroke="none" /><text fill="#e1ed5e" style="font-size:6.75px; font-family:Arial;" text-anchor="middle"><textPath startOffset="21.466115282336833" xlink:href="#id6">June</textPath></text><line stroke="#e1ed5e" stroke-width="0.3" x1="102.19456741930631" x2="102.32365962044197" y1="184.97166512339345" y2="189.96999836594603" /><path d="M 102.22038585953345 185.97133177190398 a86.0,86.0 0 0,1 -42.740103519485714,-10.115201625700543" fill="none" id="id7" stroke="none" /><text fill="#e1ed5e" style="font-size:6.75px; font-family:Arial;" text-anchor="middle"><textPath startOffset="22.20632615414155" xlink:href="#id7">July</textPath></text><path d="M 97.65516085044442 120.86867818915974 l -1.0034647271778472 8.930669069397108 a29.98686772383884,29.98686772383884 0 0,0 -0.5124506902224364,-0.062050642005825066 l 1.1570428404516728 -8.912072898665935" fill="red" stroke="none" /><path d="M 97.2962882734958 120.8252237178851 l -5.179879148918946 39.897797183918065 a61.23264058108125,61.23264058108125 0 0,0 -1.0440789465818183,-0.14469982832720527 l 5.865886686687595 -39.80272279009826" fill="red" stroke="none" /><path d="M 96.93821686468263 120.77559828337769 l -5.912317572251901 40.11777757477538 a61.55109834041871,61.55109834041871 0 0,0 -1.046849756319185,-0.16349640238444307 l 6.602003192179603 -40.010062865043835" fill="red" stroke="none" /><path d="M 95.51606077576429 120.51570834832081 l -5.3335538188952745 24.403014656644693 a45.97906965183988,45.97906965183988 0 0,0 -0.7717474096159849,-0.17564719783474517 l 5.752821377904122 -24.30759072523226" fill="red" stroke="none" /><path d="M 95.16358092515715 120.4354850818985 l -9.808696520284768 41.44501713174269 a63.58990458403836,63.58990458403836 0 0,0 -1.0630012917961582,-0.26125985483055847 l 10.520651096824135 -41.270036018598105" fill="red" stroke="none" /><path d="M 94.81253420990036 120.34920634021253 l -10.645614630744879 41.76023852588182 a64.09578439482073,64.09578439482073 0 0,0 -1.0667661534040023,-0.28174263680068806 l 11.36287122696037 -41.57080453977755" fill="red" stroke="none" /><path d="M 94.46302465271185 120.25689768951611 l -11.700106240146491 42.804571123690486 a65.37481036707416,65.37481036707416 0 0,0 -1.0829456627512601,-0.30605126154535256 l 12.435183071002365 -42.596831068806615" fill="red" stroke="none" /><path d="M 94.11515582081647 120.15858648285463 l -15.723168364747428 53.85985416341469 a77.10794875889238,77.10794875889238 0 0,0 -1.2709043207158017,-0.3829130464445579 l 16.647947659903476 -53.5812257478644" fill="red" stroke="none" /><path d="M 93.76903079525671 120.05430185196036 l -18.28379759665863 58.846189726698526 a82.6211919708324,82.6211919708324 0 0,0 -1.354510135176256,-0.4336713712631792 l 19.294029076925828 -58.52274550877564" fill="red" stroke="none" /><path d="M 93.42475214034765 119.94407469862007 l -12.49402928305878 37.896952119040826 a60.90338015304973,60.90338015304973 0 0,0 -0.9928128758485322,-0.33681603137063476 l 13.144511891844537 -37.676273100772065" fill="red" stroke="none" /><path d="M 93.08242187328487 119.8279376855182 l -15.023199184204271 43.06117716417907 a66.60659483553988,66.60659483553988 0 0,0 -1.0792819693140614,-0.38699211518283183 l 15.762200714148058 -42.79619750795628" fill="red" stroke="none" /><path d="M 92.7421414339146 119.70592522655815 l -21.773575698256195 59.117775679674445 a84.0,84.0 0 0,0 -1.3525191169588682,-0.5114069995734671 l 22.787965035975347 -58.734220429994345" fill="red" stroke="none" /><path d="M 92.40401165467489 119.57807347666478 l -4.305811587787303 11.097896917424293 a32.90392075827536,32.90392075827536 0 0,0 -0.5262730237282618,-0.20941489717886824 l 4.496205687557423 -11.02213517583936" fill="red" stroke="none" /><path d="M 92.06813273071674 119.44442032107085 l -22.84004945216876 55.990790897607184 a81.47012919051096,81.47012919051096 0 0,0 -1.293933965879253,-0.5408645026786816 l 23.800454877545477 -55.58934135190852" fill="red" stroke="none" /><line stroke="#e1ed5e" stroke-width="0.3" x1="58.666819895761336" x2="56.23545636021788" y1="174.27360380694188" y2="178.64263932499728" /><path d="M 58.180547188652646 175.14741091055294 a86.0,86.0 0 0,1 -31.652253787137756,-30.449443065178592" fill="none" id="id8" stroke="none" /><text fill="#e1ed5e" style="font-size:6.75px; font-family:Arial;" text-anchor="middle"><textPath startOffset="22.20632615414155" xlink:href="#id8">August</textPath></text><line stroke="#e1ed5e" stroke-width="0.3" x1="26.63291911575756" x2="22.317208475507996" y1="142.92168965132927" y2="145.44649492493687" /><path d="M 25.769776987707644 143.4266507060508 a86.0,86.0 0 0,1 -11.730757126820373,-40.83630448921669" fill="none" id="id9" stroke="none" /><text fill="#e1ed5e" style="font-size:6.75px; font-family:Arial;" text-anchor="middle"><textPath startOffset="21.46611528233685" xlink:href="#id9">September</textPath></text><line stroke="#e1ed5e" stroke-width="0.3" x1="15.007084014347285" x2="10.007500721073583" y1="101.09737516637583" y2="101.16192664675087" /><path d="M 14.007167355692545 101.11028546245083 a86.0,86.0 0 0,1 10.666146001902534,-42.60595125391555" fill="none" id="id10" stroke="none" /><text fill="#e1ed5e" style="font-size:6.75px; font-family:Arial;" text-anchor="middle"><textPath startOffset="22.20632615414155" xlink:href="#id10">October</textPath></text><line stroke="#e1ed5e" stroke-width="0.3" x1="26.266209847984243" x2="21.928928074336255" y1="57.711370442889674" y2="55.22380399835377" /><path d="M 25.398753493254645 57.213857153982495 a86.0,86.0 0 0,1 29.58750427330803,-30.492523968695096" fill="none" id="id11" stroke="none" /><text fill="#e1ed5e" style="font-size:6.75px; font-family:Arial;" text-anchor="middle"><textPath startOffset="21.46611528233685" xlink:href="#id11">November</textPath></text><line stroke="#e1ed5e" stroke-width="0.3" x1="56.762969772571076" x2="54.21961505331055" y1="26.818313649435495" y2="22.513508569990535" /><path d="M 56.25429882871897 25.957352633546506 a86.0,86.0 0 0,1 42.265352541879196,-11.944610805530505" fill="none" id="id12" stroke="none" /><text fill="#e1ed5e" style="font-size:6.75px; font-family:Arial;" text-anchor="middle"><textPath startOffset="22.20632615414155" xlink:href="#id12">December</textPath></text></svg>