<?xml version="1.0" encoding="utf-8" ?>
<svg baseProfile="full" height="200mm" version="1.1" viewBox="0,0,200,200" width="200mm" xmlns="http://www.w3.org/2000/svg" xmlns:ev="http://www.w3.org/2001/xml-events" xmlns:xlink="http://www.w3.org/1999/xlink"><defs /><rect fill="#1a1a1a" height="200" width="200" x="0" y="0" /><rect fill="#1a1a1a" height="200" width="180" x="10" y="0" /><text alignment-baseline="middle" fill="#e1ed5e" style="dominant-baseline: central; font-size:9.0px; font-family:Arial;" text-anchor="middle" x="100.0" y="100.0">2025</text><line stroke="#e1ed5e" stroke-width="0.3" x1="100.0" x2="100.0" y1="15.0" y2="10.0" /><path d="M 100.0 14.0 a86.0,86.0 0 0,1 42.46469731375804,11.215312516191453" fill="none" id="id1" stroke="none" /><text fill="#e1ed5e" style="font-size:6.75px; font-family:Arial;" text-anchor="middle"><textPath startOffset="22.20632615414155" xlink:href="#id1">January</textPath></text><line stroke="#e1ed5e" stroke-width="0.3" x1="143.23703022742887" x2="145.7803849466894" y1="26.81831364943548" y2="22.513508569990506" /><path d="M 143.74570117128098 25.957352633546492 a86.0,86.0 0 0,1 28.547481713284135,27.462654790039103" fill="none" id="id2" stroke="none" /><text fill="#e1ed5e" style="font-size:6.75px; font-family:Arial;" text-anchor="middle"><textPath startOffset="19.985693538727396" xlink:href="#id2">February</textPath></text><line stroke="#e1ed5e" stroke-width="0.3" x1="172.23445277983987" x2="176.4835382374775" y1="55.19839476539836" y2="52.563006222186495" /><path d="M 173.08426987136738 54.67131705675599 a86.0,86.0 0 0,1 12.851231095245387,41.99856678651699" fill="none" id="id3" stroke="none" /><text fill="#e1ed5e" style="font-size:6.75px; font-family:Arial;" text-anchor="middle"><textPath startOffset="22.20632615414155" xlink:href="#id3">March</textPath></text><line stroke="#e1ed5e" stroke-width="0.3" x1="184.98032266829074" x2="189.97916517819016" y1="98.17113171792111" y2="98.06355123074" /><path d="M 185.9800911702706 98.14961562048488 a86.0,86.0 0 0,1 -9.607161424134198,41.387399972396054" fill="none" id="id4" stroke="none" /><text fill="#e1ed5e" style="font-size:6.75px; font-family:Arial;" text-anchor="middle"><textPath startOffset="21.466115282336823" xlink:href="#id4">April</textPath></text><line stroke="#e1ed5e" stroke-width="0.3" x1="174.80103733775053" x2="179.2010983576182" y1="140.37084112569926" y2="142.7455964860345" /><path d="M 175.68104954172406 140.8457921977663 a86.0,86.0 0 0,1 -30.038265399797805,32.042727171017184" fill="none" id="id5" stroke="none" /><text fill="#e1ed5e" style="font-size:6.75px; font-family:Arial;" text-anchor="middle"><textPath startOffset="22.206326154141568" xlink:href="#id5">May</textPath></text><line stroke="#e1ed5e" stroke-width="0.3" x1="143.8653032363475" x2="146.44561519142675" y1="172.8068346515853" y2="177.08958963109032" /><path d="M 144.38136562736335 173.6633856474863 a86.0,86.0 0 0,1 -40.68145358897372,12.25698825130547" fill="none" id="id6" stroke="none" /><text fill="#e1ed5e" style="font-size:6.75px; font-family:Arial;" text-anchor="middle"><textPath startOffset="21.466115282336833" xlink:href="#id6">June</textPath></text><line stroke="#e1ed5e" stroke-width="0.3" x1="102.19456741930631" x2="102.32365962044197" y1="184.97166512339345" y2="189.96999836594603" /><path d="M 102.22038585953345 185.97133177190398 a86.0,86.0 0 0,1 -42.740103519485714,-10.115201625700543" fill="none" id="id7" stroke="none" /><text fill="#e1ed5e" style="font-size:6.75px; font-family:Arial;" text-anchor="middle"><textPath startOffset="22.20632615414155" xlink:href="#id7">July</textPath></text><path d="M 97.65516085044442 120.86867818915974 l -0.6859239270544527 6.104608795301394 a27.14302369988729,27.14302369988729 0 0,0 -0.46385175530265543,-0.05616598779399689 l 0.7909031054084975 -6.0918972787820485" fill="red" stroke="none" /><path d="M 97.2962882734958 120.8252237178851 l -3.5407353654437443 27.272362429900205 a48.501246506948306,48.501246506948306 0 0,0 -0.826995698377989,-0.11461406819321848 l 4.009659655008565 -27.207373796214384" fill="red" stroke="none" /><path d="M 96.93821686468263 120.77559828337769 l -4.041397746543136 27.422731256511767 a48.718930089609,48.718930089609 0 0,0 -0.8286025995891537,-0.1294106849826862 l 4.512836209740806 -27.349102264181976" fill="red" stroke="none" /><path d="M 95.51606077576429 120.51570834832081 l -3.6457805456718657 16.680817164673954 a38.07458277875277,38.07458277875277 0 0,0 -0.6390725357039934,-0.14545082848468113 l 3.9323732307687216 -16.615589602611585" fill="red" stroke="none" /><path d="M 95.16358092515715 120.4354850818985 l -6.704789370525276 28.32997327947495 a50.11256750131931,50.11256750131931 0 0,0 -0.8377072483058229,-0.20588806031747936 l 7.19144990357431 -28.21036396084344" fill="red" stroke="none" /><path d="M 94.81253420990036 120.34920634021253 l -7.276869426158413 28.545444626602006 a50.458364475574,50.458364475574 0 0,0 -0.8397943154435404,-0.22179731148039644 l 7.767154184413442 -28.415955965818025" fill="red" stroke="none" /><path d="M 94.46302465271185 120.25689768951611 l -7.997673063971313 29.259304015217 a51.332649833027546,51.332649833027546 0 0,0 -0.8503347112147703,-0.24031308315314703 l 8.500138943290699 -29.117302138725332" fill="red" stroke="none" /><path d="M 94.11515582081647 120.15858648285463 l -10.74765968188781 36.81620457377759 a59.35290220903652,59.35290220903652 0 0,0 -0.978263085435636,-0.29474264282730184 l 11.379797741763692 -36.62574656184456" fill="red" stroke="none" /><path d="M 93.76903079525671 120.05430185196036 l -12.497992116015979 40.224642138691365 a63.121510444401004,63.121510444401004 0 0,0 -1.034828033886978,-0.3313192576583773 l 13.188541494993897 -40.00355003437328" fill="red" stroke="none" /><path d="M 93.42475214034765 119.94407469862007 l -8.540363600692991 25.90467359425179 a48.276178699678,48.276178699678 0 0,0 -0.7869712927157609,-0.2669833903882408 l 8.985004626345978 -25.753827216965426" fill="red" stroke="none" /><path d="M 93.08242187328487 119.8279376855182 l -10.26919183331125 29.434708509496385 a52.1746429963258,52.1746429963258 0 0,0 -0.8454290687036619,-0.3031407851116217 l 10.774340462644638 -29.253580183344805" fill="red" stroke="none" /><path d="M 92.7421414339146 119.70592522655815 l -14.883449457131059 40.41028623594029 a64.06400238498043,64.06400238498043 0 0,0 -1.0315212849355304,-0.3900330861948843 l 15.576840962826871 -40.148104899638774" fill="red" stroke="none" /><path d="M 92.40401165467489 119.57807347666478 l -2.9432615950118857 7.586029513019473 a29.136991617856957,29.136991617856957 0 0,0 -0.46602387580872356,-0.1854405178209795 l 3.0734065468624676 -7.534242150792427" fill="red" stroke="none" /><path d="M 92.06813273071674 119.44442032107085 l -15.612443556845495 38.272818297642786 a62.33469504254346,62.33469504254346 0 0,0 -0.9900190409623949,-0.41382803941520413 l 16.26893405730535 -37.998405215207605" fill="red" stroke="none" /><path d="M 91.7346041902142 119.30500536409082 l -15.174160902916794 35.44140708658666 a59.55319046959361,59.55319046959361 0 0,0 -0.9388966725072364,-0.41158470959738286 l 15.781978250081774 -35.17495782369482" fill="red" stroke="none" /><path d="M 90.7491055286396 118.85261126421891 l -5.328877279881136 10.859841947538042 a33.096821904514435,33.096821904514435 0 0,0 -0.5092908888839741,-0.25536902439184656 l 5.515022076447871 -10.766505082236893" fill="red" stroke="none" /><path d="M 90.42595943632237 118.69057910512821 l -27.376562554229437 53.44491749779735 a81.04860850704205,81.04860850704205 0 0,0 -1.2362193639225727,-0.6467315438689146 l 28.292472820678505 -52.96575653498372" fill="red" stroke="none" /><line stroke="#e1ed5e" stroke-width="0.3" x1="58.666819895761336" x2="56.23545636021788" y1="174.27360380694188" y2="178.64263932499728" /><path d="M 58.180547188652646 175.14741091055294 a86.0,86.0 0 0,1 -31.652253787137756,-30.449443065178592" fill="none" id="id8" stroke="none" /><text fill="#e1ed5e" style="font-size:6.75px; font-family:Arial;" text-anchor="middle"><textPath startOffset="22.20632615414155" xlink:href="#id8">August</textPath></text><path d="M 89.7882731507175 118.34994917583269 l -30.635180547847483 55.04984752749809 a84.0,84.0 0 0,0 -1.257404932315171,-0.7139873368214675 l 31.57823424708386 -54.51435702488198" fill="red" stroke="none" /><path d="M 89.4739219176387 118.17145234162733 l -13.749791561367422 23.736635821026393 a48.431453626832905,48.431453626832905 0 0,0 -0.7177821153080662,-0.42407832565671894 l 14.156341547703871 -23.496438923075925" fill="red" stroke="none" /><path d="M 89.1626897886671 117.98757091392108 l -17.99650576781834 29.870273839988922 a55.872732601949124,55.872732601949124 0 0,0 -0.819522085620026,-0.5034173999096598 l 18.508007053370676 -29.556067973250883" fill="red" stroke="none" /><path d="M 88.54995079064634 117.60387380957326 l -14.724626801253184 22.638371884949585 a48.0057496847886,48.0057496847886 0 0,0 -0.688826046951567,-0.45651634338319524 l 15.112127546944713 -22.381557520475074" fill="red" stroke="none" /><path d="M 88.24862548938628 117.40417183066458 l -33.776745193022904 50.024469621745034 a81.35988797845211,81.35988797845211 0 0,0 -1.1539277382016588,-0.793682020409976 l 34.63282981584746 -49.43564681196995" fill="red" stroke="none" /><path d="M 87.95078237400918 117.19931262002967 l -23.189079050674184 33.100590622814785 a61.41512695510915,61.41512695510915 0 0,0 -0.8606092152180869,-0.6140218244662347 l 23.75541559374116 -32.696524536504334" fill="red" stroke="none" /><path d="M 87.07902340077011 116.55440617244103 l -28.165804957287094 36.08614038233567 a66.7768729445948,66.7768729445948 0 0,0 -0.9000330260348822,-0.7150406692394151 l 28.782795476039333 -35.595965799091125" fill="red" stroke="none" /><path d="M 86.79598089348748 116.32954008644616 l -21.179421597813164 26.192798662238566 a54.68427824636415,54.68427824636415 0 0,0 -0.7268578836920998,-0.5981545540458064 l 21.62714961004995 -25.82434898933558" fill="red" stroke="none" /><path d="M 86.51685102203217 116.09983520530335 l -17.473999251273693 20.865193196545246 a48.215747958905546,48.215747958905546 0 0,0 -0.6317055636263921,-0.5383531858819457 l 17.83057029147714 -20.561315620440347" fill="red" stroke="none" /><path d="M 86.24171649860922 115.8653595955263 l -16.456154806548422 18.97640890588911 a46.11790449023553,46.11790449023553 0 0,0 -0.5952671752381884,-0.5252540716200089 l 16.7803643346932 -18.690331692496812" fill="red" stroke="none" /><path d="M 85.97065885151581 115.62618273729859 l -17.089365077781927 19.034503384264905 a46.58043623254507,46.58043623254507 0 0,0 -0.5920161626903203,-0.5407927280498681 l 17.414480789939102 -18.73751788962846" fill="red" stroke="none" /><path d="M 85.70375840098266 115.38237550388516 l -20.310598526255323 21.853663501391214 a50.83459436504481,50.83459436504481 0 0,0 -0.6358298244274178,-0.6012167854927435 l 20.68376418507356 -21.50081207915254" fill="red" stroke="none" /><path d="M 85.18274418774928 114.88116024355367 l -26.830984267899805 26.946701969791707 a59.02665464950951,59.02665464950951 0 0,0 -0.7138272533263017,-0.7231032389098438 l 27.290852146281637 -26.4808582369012" fill="red" stroke="none" /><path d="M 84.67929136418377 114.36230785411682 l -19.700162263154116 18.46780079989428 a48.002889837555855,48.002889837555855 0 0,0 -0.5599276329664107,-0.607690858534454 l 20.015136304116258 -18.12595868655848" fill="red" stroke="none" /><path d="M 84.19399662182784 113.82643327865904 l -21.453222517073396 18.766385318768844 a49.50294676519549,49.50294676519549 0 0,0 -0.5555114382636812,-0.6461853032060823 l 21.773076464907856 -18.394322916401233" fill="red" stroke="none" /><path d="M 83.72743513129214 113.27417163493432 l -20.727044513550705 16.907866005000805 a47.748575795914334,47.748575795914334 0 0,0 -0.5140522720165258,-0.641359248490773 l 21.01501469762209 -16.54857892293177" fill="red" stroke="none" /><path d="M 83.50135304334701 112.99209946851258 l -17.903407067496293 14.098298245747188 a43.7880231273034,43.7880231273034 0 0,0 -0.461219628726527,-0.5961885431606605 l 18.14343351344089 -13.788031708473275" fill="red" stroke="none" /><path d="M 83.28015986056508 112.70617746262583 l -22.312873531898994 16.956581428595964 a49.02481006171361,49.02481006171361 0 0,0 -0.504812515631381,-0.67627885997052 l 22.60144731422546 -16.569989689116138" fill="red" stroke="none" /><path d="M 82.6465618267979 111.8261652097733 l -21.59193192683429 14.714649144239482 a47.12914892933013,47.12914892933013 0 0,0 -0.451086313306217,-0.6743128341980935 l 21.842021345551238 -14.340799395835568" fill="red" stroke="none" /><line stroke="#e1ed5e" stroke-width="0.3" x1="26.63291911575756" x2="22.317208475507996" y1="142.92168965132927" y2="145.44649492493687" /><path d="M 25.769776987707644 143.4266507060508 a86.0,86.0 0 0,1 -11.730757126820373,-40.83630448921669" fill="none" id="id9" stroke="none" /><text fill="#e1ed5e" style="font-size:6.75px; font-family:Arial;" text-anchor="middle"><textPath startOffset="21.46611528233685" xlink:href="#id9">September</textPath></text><path d="M 81.87401531095188 110.60418214915194 l -22.856545535276126 13.371685804352385 a47.4806279203585,47.4806279203585 0 0,0 -0.40663315013848483,-0.7089991724766854 l 23.08333068156699 -12.976266786017392" fill="red" stroke="none" /><path d="M 81.51974371655577 109.97397251340807 l -19.257754612921858 10.393595858912084 a42.883508576320835,42.883508576320835 0 0,0 -0.34500291488028534,-0.6526154972103558 l 19.43381003602703 -10.060565346615602" fill="red" stroke="none" /><path d="M 81.35079622478065 109.6543875284942 l -26.9847780990085 13.969577912190877 a51.38630211291759,51.38630211291759 0 0,0 -0.39988656409798884,-0.7890141282135094 l 27.221243332892758 -13.503009572274683" fill="red" stroke="none" /><line stroke="#e1ed5e" stroke-width="0.3" x1="15.007084014347285" x2="10.007500721073583" y1="101.09737516637583" y2="101.16192664675087" /><path d="M 14.007167355692545 101.11028546245083 a86.0,86.0 0 0,1 10.666146001902534,-42.60595125391555" fill="none" id="id10" stroke="none" /><text fill="#e1ed5e" style="font-size:6.75px; font-family:Arial;" text-anchor="middle"><textPath startOffset="22.20632615414155" xlink:href="#id10">October</textPath></text><line stroke="#e1ed5e" stroke-width="0.3" x1="26.266209847984243" x2="21.928928074336255" y1="57.711370442889674" y2="55.22380399835377" /><path d="M 25.398753493254645 57.213857153982495 a86.0,86.0 0 0,1 29.58750427330803,-30.492523968695096" fill="none" id="id11" stroke="none" /><text fill="#e1ed5e" style="font-size:6.75px; font-family:Arial;" text-anchor="middle"><textPath startOffset="21.46611528233685" xlink:href="#id11">November</textPath></text><line stroke="#e1ed5e" stroke-width="0.3" x1="56.762969772571076" x2="54.21961505331055" y1="26.818313649435495" y2="22.513508569990535" /><path d="M 56.25429882871897 25.957352633546506 a86.0,86.0 0 0,1 42.265352541879196,-11.944610805530505" fill="none" id="id12" stroke="none" /><text fill="#e1ed5e" style="font-size:6.75px; font-family:Arial;" text-anchor="middle"><textPath startOffset="22.20632615414155" xlink:href="#id12">December</textPath></text></svg>