<?xml version="1.0" encoding="utf-8" ?>
<svg baseProfile="full" height="200mm" version="1.1" viewBox="0,0,200,200" width="200mm" xmlns="http://www.w3.org/2000/svg" xmlns:ev="http://www.w3.org/2001/xml-events" xmlns:xlink="http://www.w3.org/1999/xlink"><defs /><rect fill="#1a1a1a" height="200" width="200" x="0" y="0" /><text alignment-baseline="middle" fill="#e1ed5e" style="dominant-baseline: central; font-size:9.0px; font-family:Arial;" text-anchor="middle" x="100.0" y="100.0">2025</text><line stroke="#e1ed5e" stroke-width="0.3" x1="100.0" x2="100.0" y1="15.0" y2="10.0" /><path d="M 100.0 14.0 a86.0,86.0 0 0,1 42.46469731375804,11.215312516191453" fill="none" id="id1" stroke="none" /><text fill="#e1ed5e" style="font-size:6.75px; font-family:Arial;" text-anchor="middle"><textPath startOffset="22.20632615414155" xlink:href="#id1">January</textPath></text><line stroke="#e1ed5e" stroke-width="0.3" x1="143.23703022742887" x2="145.7803849466894" y1="26.81831364943548" y2="22.513508569990506" /><path d="M 143.74570117128098 25.957352633546492 a86.0,86.0 0 0,1 28.547481713284135,27.462654790039103" fill="none" id="id2" stroke="none" /><text fill="#e1ed5e" style="font-size:6.75px; font-family:Arial;" text-anchor="middle"><textPath startOffset="19.985693538727396" xlink:href="#id2">February</textPath></text><line stroke="#e1ed5e" stroke-width="0.3" x1="172.23445277983987" x2="176.4835382374775" y1="55.19839476539836" y2="52.563006222186495" /><path d="M 173.08426987136738 54.67131705675599 a86.0,86.0 0 0,1 12.851231095245387,41.99856678651699" fill="none" id="id3" stroke="none" /><text fill="#e1ed5e" style="font-size:6.75px; font-family:Arial;" text-anchor="middle"><textPath startOffset="22.20632615414155" xlink:href="#id3">March</textPath></text><line stroke="#e1ed5e" stroke-width="0.3" x1="184.98032266829074" x2="189.97916517819016" y1="98.17113171792111" y2="98.06355123074" /><path d="M 185.9800911702706 98.14961562048488 a86.0,86.0 0 0,1 -9.607161424134198,41.387399972396054" fill="none" id="id4" stroke="none" /><text fill="#e1ed5e" style="font-size:6.75px; font-family:Arial;" text-anchor="middle"><textPath startOffset="21.466115282336823" xlink:href="#id4">April</textPath></text><line stroke="#e1ed5e" stroke-width="0.3" x1="174.80103733775053" x2="179.2010983576182" y1="140.37084112569926" y2="142.7455964860345" /><path d="M 175.68104954172406 140.8457921977663 a86.0,86.0 0 0,1 -30.038265399797805,32.042727171017184" fill="none" id="id5" stroke="none" /><text fill="#e1ed5e" style="font-size:6.75px; font-family:Arial;" text-anchor="middle"><textPath startOffset="22.206326154141568" xlink:href="#id5">May</textPath></text><line stroke="#e1ed5e" stroke-width="0.3" x1="143.8653032363475" x2="146.44561519142675" y1="172.8068346515853" y2="177.08958963109032" /><path d="M 144.38136562736335 173.6633856474863 a86.0,86.0 0 0,1 -40.68145358897372,12.25698825130547" fill="none" id="id6" stroke="none" /><text fill="#e1ed5e" style="font-size:6.75px; font-family:Arial;" text-anchor="middle"><textPath startOffset="21.466115282336833" xlink:href="#id6">June</textPath></text><line stroke="#e1ed5e" stroke-width="0.3" x1="102.19456741930631" x2="102.32365962044197" y1="184.97166512339345" y2="189.96999836594603" /><path d="M 102.22038585953345 185.97133177190398 a86.0,86.0 0 0,1 -42.740103519485714,-10.115201625700543" fill="none" id="id7" stroke="none" /><text fill="#e1ed5e" style="font-size:6.75px; font-family:Arial;" text-anchor="middle"><textPath startOffset="22.20632615414155" xlink:href="#id7">July</textPath></text><path d="M 97.65516085044442 120.86867818915974 l -0.7196371153107205 6.404650560035643 a27.44495355870759,27.44495355870759 0 0,0 -0.46901148608801596,-0.05679075933576194 l 0.8297760244501259 -6.391314271974533" fill="red" stroke="none" /><path d="M 97.2962882734958 120.8252237178851 l -3.7147626492759844 28.612800126454562 a49.85293386497973,49.85293386497973 0 0,0 -0.8500433458334777,-0.11780826211990718 l 4.206734586296293 -28.544617298842052" fill="red" stroke="none" /><path d="M 96.93821686468263 120.77559828337769 l -4.24003260629027 28.770559586865993 a50.08131660437353,50.08131660437353 0 0,0 -0.8517738187785477,-0.1330295528798787 l 4.7346422886773345 -28.69331172663901" fill="red" stroke="none" /><path d="M 95.51606077576429 120.51570834832081 l -3.824970804284199 17.500679990798105 a38.913799200447336,38.913799200447336 0 0,0 -0.6531585775585628,-0.14865676575056605 l 4.1256495312356245 -17.43224649146985" fill="red" stroke="none" /><path d="M 95.16358092515715 120.4354850818985 l -7.034330034368012 29.722392591289026 a51.54345135021785,51.54345135021785 0 0,0 -0.8616266328329574,-0.21176686307851478 l 7.54490995194418 -29.596904469896483" fill="red" stroke="none" /><path d="M 94.81253420990036 120.34920634021253 l -7.634527847455739 29.94845436368485 a51.90624425949053,51.90624425949053 0 0,0 -0.8638918307834863,-0.22816168430058484 l 8.148910121050715 -29.812601330080682" fill="red" stroke="none" /><path d="M 94.46302465271185 120.25689768951611 l -8.390759012693938 30.697399969601282 a52.823500776985256,52.823500776985256 0 0,0 -0.8750309291388039,-0.24729248102233212 l 8.917921109937355 -30.54841869524043" fill="red" stroke="none" /><path d="M 94.11515582081647 120.15858648285463 l -11.27590758209704 38.62572249073822 a61.23794887580024,61.23794887580024 0 0,0 -1.0093326961839657,-0.3041036616778703 l 11.939115252721251 -38.425903459954625" fill="red" stroke="none" /><path d="M 93.76903079525671 120.05430185196036 l -13.112268924877245 42.20168489733397 a65.19178435560356,65.19178435560356 0 0,0 -1.0687685632889843,-0.3421859433663074 l 13.83675883325717 -41.969726107307956" fill="red" stroke="none" /><path d="M 93.42475214034765 119.94407469862007 l -8.9601228108485 27.17788933021613 a49.616803966043506,49.616803966043506 0 0,0 -0.8088254167855708,-0.2743974958227455 l 9.426617960571296 -27.01962884749526" fill="red" stroke="none" /><path d="M 93.08242187328487 119.8279376855182 l -10.773923019760538 30.881425601740695 a53.70687793769946,53.70687793769946 0 0,0 -0.8702571438974291,-0.31204324953550244 l 11.303899724287694 -30.691394811165235" fill="red" stroke="none" /><path d="M 92.7421414339146 119.70592522655815 l -15.61497158904682 42.39645340933555 a66.18059981249363,66.18059981249363 0 0,0 -1.0656015049785965,-0.4029193092866634 l 16.3424433147857 -42.12138584994225" fill="red" stroke="none" /><path d="M 92.40401165467489 119.57807347666478 l -3.0879230192986657 7.958883164864345 a29.53692507903611,29.53692507903611 0 0,0 -0.4724205053609002,-0.1879858687311794 l 3.224464600701424 -7.904550451727099" fill="red" stroke="none" /><path d="M 92.06813273071674 119.44442032107085 l -16.3797957777143 40.15392883698096 a64.36629694549626,64.36629694549626 0 0,0 -1.0222855751325866,-0.42731545331523774 l 17.06855281234435 -39.86602834064575" fill="red" stroke="none" /><path d="M 91.7346041902142 119.30500536409082 l -15.919971513938563 37.18335365245163 a61.44808131231818,61.44808131231818 0 0,0 -0.9687709192599255,-0.42468070145057724 l 16.557663107856232 -36.9038083977066" fill="red" stroke="none" /><path d="M 90.7491055286396 118.85261126421891 l -5.5907918098242195 11.39360361055931 a33.69138118154788,33.69138118154788 0 0,0 -0.5184399130279894,-0.25995653502828153 l 5.786085630534969 -11.295679234621726" fill="red" stroke="none" /><path d="M 90.42595943632237 118.69057910512821 l -28.72212169103289 56.07173731538464 a84.0,84.0 0 0,0 -1.2812363898940176,-0.6702823242211329 l 29.683048983453403 -55.569025572218784" fill="red" stroke="none" /><line stroke="#e1ed5e" stroke-width="0.3" x1="58.666819895761336" x2="56.23545636021788" y1="174.27360380694188" y2="178.64263932499728" /><path d="M 58.180547188652646 175.14741091055294 a86.0,86.0 0 0,1 -31.652253787137756,-30.449443065178592" fill="none" id="id8" stroke="none" /><text fill="#e1ed5e" style="font-size:6.75px; font-family:Arial;" text-anchor="middle"><textPath startOffset="22.20632615414155" xlink:href="#id8">August</textPath></text><line stroke="#e1ed5e" stroke-width="0.3" x1="26.63291911575756" x2="22.317208475507996" y1="142.92168965132927" y2="145.44649492493687" /><path d="M 25.769776987707644 143.4266507060508 a86.0,86.0 0 0,1 -11.730757126820373,-40.83630448921669" fill="none" id="id9" stroke="none" /><text fill="#e1ed5e" style="font-size:6.75px; font-family:Arial;" text-anchor="middle"><textPath startOffset="21.46611528233685" xlink:href="#id9">September</textPath></text><line stroke="#e1ed5e" stroke-width="0.3" x1="15.007084014347285" x2="10.007500721073583" y1="101.09737516637583" y2="101.16192664675087" /><path d="M 14.007167355692545 101.11028546245083 a86.0,86.0 0 0,1 10.666146001902534,-42.60595125391555" fill="none" id="id10" stroke="none" /><text fill="#e1ed5e" style="font-size:6.75px; font-family:Arial;" text-anchor="middle"><textPath startOffset="22.20632615414155" xlink:href="#id10">October</textPath></text><line stroke="#e1ed5e" stroke-width="0.3" x1="26.266209847984243" x2="21.928928074336255" y1="57.711370442889674" y2="55.22380399835377" /><path d="M 25.398753493254645 57.213857153982495 a86.0,86.0 0 0,1 29.58750427330803,-30.492523968695096" fill="none" id="id11" stroke="none" /><text fill="#e1ed5e" style="font-size:6.75px; font-family:Arial;" text-anchor="middle"><textPath startOffset="21.46611528233685" xlink:href="#id11">November</textPath></text><line stroke="#e1ed5e" stroke-width="0.3" x1="56.762969772571076" x2="54.21961505331055" y1="26.818313649435495" y2="22.513508569990535" /><path d="M 56.25429882871897 25.957352633546506 a86.0,86.0 0 0,1 42.265352541879196,-11.944610805530505" fill="none" id="id12" stroke="none" /><text fill="#e1ed5e" style="font-size:6.75px; font-family:Arial;" text-anchor="middle"><textPath startOffset="22.20632615414155" xlink:href="#id12">December</textPath></text></svg>